<?xml version="1.0" encoding="utf-8"?>
<!-- Generator: Adobe Illustrator 15.1.0, SVG Export Plug-In . SVG Version: 6.00 Build 0)  -->
<!DOCTYPE svg PUBLIC "-//W3C//DTD SVG 1.1//EN" "http://www.w3.org/Graphics/SVG/1.1/DTD/svg11.dtd">
<svg version="1.1" id="Layer_1" xmlns="http://www.w3.org/2000/svg" xmlns:xlink="http://www.w3.org/1999/xlink" x="0px" y="0px"
	 width="300px" height="300px" viewBox="0 0 300 300" enable-background="new 0 0 300 300" xml:space="preserve">
<rect fill="#33CCFF" width="300" height="300"/>
<path fill="#FFFFFF" d="M257.144,144.273c-7.542,1.287-18.479-0.051-24.275-2.462c12.044-0.997,20.197-6.471,23.338-13.901
	c-4.339,2.672-17.821,5.582-25.255,2.81c-0.372-1.75-0.774-3.413-1.183-4.918c-5.663-20.84-25.083-37.632-45.416-35.603
	c1.639-0.666,3.303-1.283,4.982-1.847c2.227-0.802,15.369-2.945,13.303-7.579c-1.751-4.087-17.805,3.073-20.825,4.014
	c3.989-1.496,10.59-4.076,11.292-8.669c-6.11,0.838-12.11,3.732-16.746,7.938c1.676-1.801,2.945-3.998,3.214-6.366
	c-16.308,10.431-25.833,31.442-33.537,51.84c-6.05-5.876-11.428-10.5-16.234-13.076c-13.498-7.235-29.643-14.797-54.976-24.216
	c-0.778,8.391,4.144,19.556,18.319,26.968c-3.069-0.415-8.686,0.515-13.17,1.582c1.826,9.622,7.802,17.542,23.992,21.367
	c-7.397,0.487-11.227,2.182-14.688,5.804c3.369,6.688,11.6,14.555,26.378,12.938c-16.448,7.1-6.707,20.241,6.679,18.279
	c-22.822,23.607-58.813,21.857-79.479,2.128c53.952,73.597,171.246,43.518,188.717-27.367
	C244.682,154.042,252.37,149.399,257.144,144.273z"/>
</svg>
