<?xml version="1.0" encoding="utf-8"?>
<!-- Generator: Adobe Illustrator 15.1.0, SVG Export Plug-In . SVG Version: 6.00 Build 0)  -->
<!DOCTYPE svg PUBLIC "-//W3C//DTD SVG 1.1//EN" "http://www.w3.org/Graphics/SVG/1.1/DTD/svg11.dtd">
<svg version="1.1" id="Logo" xmlns="http://www.w3.org/2000/svg" xmlns:xlink="http://www.w3.org/1999/xlink" x="0px" y="0px"
	 width="354.013px" height="141.751px" viewBox="0 0 354.013 141.751" enable-background="new 0 0 354.013 141.751"
	 xml:space="preserve">
<path fill="#282828" d="M98.92,49.928v25.389h6.317v-9.717h-3.889l21.867-19.923V31.582h6.318c0,0,20.895,3.404,28.184-0.968
	c-9.23,13.604-16.521,17.005-16.521,17.005s9.232-8.745,10.689-13.605c-11.178,4.86-22.84,2.429-22.84,2.429v9.234L150.429,65.6
	h-7.775v14.576h-4.858v-18.95l-11.662-12.148L109.61,64.143v13.119H96.13V47.757L98.92,49.928z"/>
<g>
	<g>
		<polygon fill="#282828" points="73.475,57.502 74.639,59.51 87.109,46.613 107.48,53.052 87.2,42.682 		"/>
		<polygon fill="#282828" points="79.225,52.238 75.457,55.652 75.457,49.685 79.225,49.685 		"/>
	</g>
</g>
<g>
	<g>
		<polygon fill="#282828" points="91.266,38.713 91.266,42.024 105.602,33.501 119.6,41.772 106.035,30.377 		"/>
		<polygon fill="#282828" points="97.689,35.88 94.525,38.752 94.525,33.74 97.689,33.74 		"/>
	</g>
</g>
<rect x="93.508" y="38.163" fill="#282828" width="1.807" height="9.289"/>
<rect x="112.08" y="37.389" fill="#282828" width="1.809" height="18.831"/>
<path id="Right_Tail" display="none" fill="#AF0A0A" d="M294.475,133.156c0,0-24.817,2.73-61.373,18.365h9.398
	C260.893,143.618,278.604,137.061,294.475,133.156z"/>
<path id="Left_Tail" display="none" fill="#282828" d="M48.496,146.252c15.071,0.289,29.279,2.283,42.344,5.27h7.301
	C69.963,145.045,48.496,146.252,48.496,146.252z"/>
<path fill="#F05A28" d="M25.257,126.775c-0.59-0.135-1.174-0.274-1.749-0.424C24.089,126.504,24.671,126.645,25.257,126.775z"/>
<g id="Lower_Left_Red">
	<path display="none" fill="#AF0A0A" d="M5.632,118.947c-4.482-0.387,24.569,5.621,56.271-6.348
		c-1.414-0.843-1.618-0.953-3.098-1.801C43.327,118.146,9.914,119.316,5.632,118.947z"/>
	<path display="none" fill="#AF0A0A" d="M75.501,103.209c-4.396,2.262-8.625,4.209-12.768,5.895c1.303,0.82,1.741,1.097,3.042,1.959
		c3.86-1.778,8.232-3.572,12.188-5.978C77.039,104.378,76.493,103.948,75.501,103.209z"/>
	<path display="none" fill="#AF0A0A" d="M77.367,102.246c0.845,0.719,1.577,1.354,2.418,2.1c0.646-0.41,8.667-4.731,11.967-6.684
		c-0.564-0.508-1.941-1.541-2.632-2.143C85.041,98.014,81.134,100.254,77.367,102.246z"/>
	<path display="none" fill="#AF0A0A" d="M87.152,112.471c-3.729,1.973-7.549,3.853-11.419,5.578c1.05,0.779,1.051,0.762,2.096,1.575
		c3.673-1.538,7.596-3.293,11.377-5.381C88.34,113.475,88.232,113.389,87.152,112.471z"/>
	<path display="none" fill="#AF0A0A" d="M25.257,126.775c15.756,3.609,32.667,0.343,49.456-6.155
		c-1.084-0.729-0.802-0.536-1.948-1.282C56.635,126.143,39.821,130.032,25.257,126.775z"/>
	<path display="none" fill="#AF0A0A" d="M31.475,141.75c14.625-0.375,35.664-2.898,55.016-12.887
		c-0.885-0.65-1.813-1.328-2.762-2.012C68.655,134.977,51.779,139.523,31.475,141.75z"/>
</g>
<g>
	<g>
		<path fill="#AF0A0A" d="M122.973,105.199c17.361-9.727,31.708-21.014,31.708-21.014h-13.454
			c-15.406,18.268-55.84,40.279-100.006,55.349C84.193,127.539,110.236,112.334,122.973,105.199z"/>
		<path fill="#AF0A0A" d="M78.083,112.512c27.521-10.654,44.924-28.471,45.658-28.55c0.733-0.079-8.638-0.035-8.638-0.035
			c-9.941,10.173-36.767,33.636-95.328,41.304C56.356,122.205,73.204,113.99,78.083,112.512z"/>
		<path fill="#AF0A0A" d="M99.905,83.961l-8.67-0.047C85.427,91.128,62.316,106.896,0,111.984c21.335,0,45.382-2.244,64.062-8.67
			C85.874,95.813,99.905,83.961,99.905,83.961z"/>
	</g>
	<path fill="#AF0A0A" d="M31.077,115.984"/>
</g>
<path fill="#282828" d="M82.712,83.691h-7.255c13.119,7.716,21.819,13.119,32.59,20.881C98.698,96.114,90.041,88.736,82.712,83.691z
	"/>
<path fill="#282828" d="M60.067,83.691H45.254c28.678,11.642,52.887,30.334,63.274,39.41
	C99.393,112.461,71.749,90.014,60.067,83.691z"/>
<path fill="#282828" d="M20.848,83.691H0c33.571,4.968,94.445,47.836,109.675,58.06C90.521,125.23,35.159,87.198,20.848,83.691z"/>
<g id="Right_Lower_Red">
	<path display="none" fill="#AF0A0A" d="M89.629,95.206c0.563,0.578,1.658,1.743,2.215,2.342
		c7.785-4.329,16.888-9.438,23.767-13.856h-9.43C101.737,88.855,94.848,92.208,89.629,95.206z"/>
	<path display="none" fill="#AF0A0A" d="M87.932,112.055c0.875,0.881,1.017,1.016,1.881,1.93
		c7.148-3.116,38.018-23.146,49.04-30.293h-7.981C126.277,87.073,105.156,102.831,87.932,112.055z"/>
	<path display="none" fill="#AF0A0A" d="M154.805,83.889l6.657-0.197c-24.736,11.629-69.294,41.944-73.365,44.349
		c-0.846-0.741-1.692-1.467-2.54-2.187C94.586,120.863,144.266,88.777,154.805,83.889z"/>
	<path display="none" fill="#AF0A0A" d="M257.918,152.814c4.692-1.336,17.453-1.39,22.52-2.424c0,0-15.813-0.813-28.449,2.424"/>
</g>
<g>
	<path fill="#AF0A0A" d="M70.252,73.609V32.556h-4.375L57.133,0l-7.775,33.042l-2.917,2.427V51.99c0,0-3.401,0-10.69,0
		s-6.8,23.127-6.8,23.127h-2.917v-16.81c-20.408,0-20.408,16.036-20.408,16.036v5.831H9.39v-4.369
		c0-14.215,14.58-12.758,14.58-12.758V77.99h8.745c0,0,0-3.281,0-12.757c0-9.474,6.194-11.294,6.194-11.294h11.298V36.442
		l2.55-2.917l5.104-20.407l5.104,23.688h4.737v40.455h10.116v-3.651H70.252z"/>
	<polygon fill="#282828" points="77.818,55.713 77.818,73.609 77.818,77.261 80.856,77.261 80.856,52.006 	"/>
	<line fill="none" x1="77.818" y1="73.609" x2="77.818" y2="77.261"/>
</g>
<g>
	<path fill="#AF0A0A" d="M172.188,79.141c-1.302-2.313-2.71-4.597-4.226-6.852c-1.516-2.254-3.129-4.382-4.839-6.384v13.236h-4.49
		V58.938h3.702c0.642,0.641,1.351,1.428,2.129,2.361c0.777,0.933,1.569,1.929,2.375,2.988c0.807,1.06,1.609,2.157,2.406,3.295
		c0.796,1.136,1.543,2.23,2.245,3.279V58.938h4.52v20.202H172.188z"/>
	<path fill="#AF0A0A" d="M179.651,71.591c0-1.361,0.209-2.552,0.626-3.572c0.418-1.021,0.967-1.87,1.647-2.551
		c0.68-0.68,1.461-1.195,2.347-1.545c0.884-0.35,1.794-0.525,2.726-0.525c2.176,0,3.896,0.666,5.16,1.997
		c1.264,1.332,1.895,3.291,1.895,5.875c0,0.253-0.01,0.529-0.027,0.831c-0.021,0.302-0.039,0.568-0.061,0.802h-9.852
		c0.098,0.894,0.514,1.603,1.254,2.128c0.736,0.524,1.729,0.787,2.973,0.787c0.795,0,1.578-0.072,2.348-0.219
		c0.768-0.146,1.393-0.325,1.879-0.538l0.584,3.526c-0.232,0.117-0.545,0.233-0.934,0.35c-0.391,0.116-0.822,0.219-1.297,0.307
		c-0.477,0.087-0.988,0.16-1.531,0.218c-0.545,0.06-1.09,0.088-1.633,0.088c-1.381,0-2.58-0.204-3.6-0.612
		c-1.021-0.408-1.866-0.967-2.537-1.676c-0.671-0.71-1.166-1.551-1.488-2.522C179.811,73.768,179.651,72.718,179.651,71.591z
		 M189.855,69.929c-0.02-0.37-0.082-0.729-0.189-1.079c-0.107-0.35-0.273-0.66-0.494-0.933c-0.227-0.272-0.506-0.496-0.846-0.67
		c-0.342-0.174-0.764-0.262-1.27-0.262c-0.486,0-0.904,0.083-1.254,0.247c-0.348,0.166-0.641,0.384-0.873,0.657
		c-0.232,0.273-0.414,0.587-0.539,0.947c-0.125,0.36-0.219,0.724-0.278,1.094H189.855z"/>
	<path fill="#AF0A0A" d="M202.156,59.375c0,0.796-0.258,1.423-0.771,1.88c-0.516,0.457-1.123,0.685-1.822,0.685
		s-1.307-0.228-1.822-0.685c-0.516-0.456-0.771-1.084-0.771-1.88s0.256-1.423,0.771-1.88c0.516-0.457,1.123-0.685,1.822-0.685
		s1.307,0.228,1.822,0.685C201.898,57.952,202.156,58.579,202.156,59.375z M201.747,79.141h-4.344V63.807h4.344V79.141z"/>
	<path fill="#AF0A0A" d="M219.064,77.217c0,2.508-0.637,4.367-1.91,5.582s-3.24,1.822-5.902,1.822c-0.934,0-1.865-0.083-2.799-0.247
		c-0.934-0.166-1.797-0.384-2.596-0.657l0.758-3.644c0.682,0.272,1.395,0.486,2.145,0.642c0.748,0.155,1.598,0.233,2.551,0.233
		c1.242,0,2.123-0.272,2.639-0.815c0.514-0.545,0.771-1.243,0.771-2.1v-0.555c-0.467,0.215-0.947,0.376-1.441,0.48
		c-0.496,0.108-1.035,0.162-1.617,0.162c-2.119,0-3.742-0.627-4.869-1.882c-1.127-1.253-1.691-3.007-1.691-5.261
		c0-1.128,0.174-2.152,0.525-3.076c0.35-0.923,0.859-1.715,1.531-2.376c0.67-0.661,1.492-1.17,2.463-1.53
		c0.969-0.36,2.068-0.54,3.293-0.54c0.525,0,1.064,0.026,1.619,0.073c0.553,0.048,1.102,0.112,1.646,0.189
		c0.543,0.078,1.063,0.17,1.559,0.277c0.494,0.106,0.938,0.218,1.326,0.335V77.217L219.064,77.217z M209.531,70.979
		c0,2.43,0.982,3.644,2.945,3.644c0.445,0,0.863-0.058,1.252-0.175c0.391-0.116,0.719-0.253,0.99-0.408v-6.938
		c-0.213-0.038-0.465-0.073-0.756-0.102c-0.291-0.028-0.633-0.044-1.021-0.044c-1.146,0-2.002,0.38-2.564,1.138
		C209.814,68.85,209.531,69.813,209.531,70.979z"/>
	<path fill="#AF0A0A" d="M223.144,79.141V57.218l4.346-0.7v7.346c0.291-0.097,0.664-0.189,1.121-0.277s0.898-0.131,1.328-0.131
		c1.242,0,2.277,0.17,3.105,0.51c0.824,0.34,1.486,0.821,1.982,1.442c0.494,0.623,0.844,1.362,1.047,2.216
		c0.205,0.856,0.307,1.808,0.307,2.857v8.658h-4.342v-8.133c0-1.399-0.182-2.391-0.541-2.975c-0.359-0.583-1.023-0.875-1.996-0.875
		c-0.389,0-0.752,0.035-1.094,0.102c-0.34,0.068-0.646,0.141-0.918,0.22v11.66H223.144z"/>
	<path fill="#AF0A0A" d="M254.572,71.473c0,1.225-0.182,2.333-0.541,3.324s-0.879,1.836-1.559,2.536s-1.516,1.239-2.506,1.618
		c-0.992,0.379-2.119,0.569-3.383,0.569c-0.523,0-1.072-0.025-1.645-0.073c-0.574-0.049-1.139-0.112-1.693-0.19
		c-0.553-0.077-1.082-0.169-1.588-0.276c-0.506-0.106-0.951-0.22-1.342-0.336V57.218l4.344-0.7v7.638
		c0.486-0.214,0.992-0.379,1.518-0.496c0.523-0.116,1.088-0.175,1.691-0.175c1.088,0,2.051,0.189,2.885,0.569
		c0.836,0.379,1.537,0.918,2.1,1.618c0.564,0.7,0.992,1.54,1.283,2.522C254.425,69.176,254.572,70.268,254.572,71.473z
		 M250.138,71.356c0-2.798-1.029-4.198-3.09-4.198c-0.447,0-0.887,0.058-1.326,0.176c-0.438,0.116-0.793,0.262-1.064,0.438v7.9
		c0.213,0.038,0.486,0.073,0.816,0.103c0.332,0.028,0.689,0.043,1.08,0.043c1.186,0,2.08-0.408,2.682-1.225
		S250.138,72.697,250.138,71.356z"/>
	<path fill="#AF0A0A" d="M272.267,71.444c0,1.205-0.176,2.309-0.527,3.31c-0.35,1-0.855,1.855-1.516,2.564
		c-0.66,0.71-1.453,1.259-2.375,1.646c-0.924,0.39-1.957,0.584-3.105,0.584c-1.127,0-2.152-0.194-3.076-0.584
		c-0.922-0.388-1.715-0.936-2.375-1.646c-0.66-0.709-1.176-1.564-1.543-2.564c-0.371-1.001-0.555-2.104-0.555-3.31
		s0.189-2.304,0.568-3.294c0.379-0.992,0.904-1.837,1.574-2.536c0.672-0.7,1.467-1.243,2.391-1.633
		c0.924-0.388,1.928-0.583,3.018-0.583c1.107,0,2.123,0.195,3.047,0.583c0.922,0.389,1.715,0.933,2.375,1.633
		c0.66,0.699,1.176,1.544,1.545,2.536C272.081,69.141,272.267,70.239,272.267,71.444z M267.835,71.444
		c0-1.34-0.268-2.396-0.803-3.162c-0.531-0.769-1.295-1.153-2.287-1.153c-0.99,0-1.76,0.384-2.305,1.153
		c-0.543,0.767-0.816,1.822-0.816,3.162c0,1.341,0.273,2.406,0.816,3.192c0.545,0.786,1.313,1.181,2.305,1.181
		c0.99,0,1.754-0.395,2.287-1.181C267.568,73.851,267.835,72.785,267.835,71.444z"/>
	<path fill="#AF0A0A" d="M284.861,67.655c-0.389-0.097-0.846-0.199-1.371-0.306s-1.088-0.16-1.691-0.16
		c-0.273,0-0.596,0.024-0.977,0.072c-0.379,0.049-0.666,0.104-0.859,0.16v11.72h-4.344V64.623c0.777-0.271,1.695-0.529,2.756-0.772
		c1.061-0.243,2.238-0.365,3.541-0.365c0.232,0,0.516,0.015,0.846,0.044c0.328,0.029,0.66,0.068,0.99,0.117s0.662,0.107,0.99,0.175
		c0.33,0.068,0.613,0.151,0.846,0.248L284.861,67.655z"/>
	<path fill="#AF0A0A" d="M287.921,79.141V57.218l4.344-0.7v7.346c0.291-0.097,0.666-0.189,1.123-0.277s0.898-0.131,1.326-0.131
		c1.244,0,2.277,0.17,3.105,0.51c0.826,0.34,1.486,0.821,1.982,1.442c0.496,0.623,0.846,1.362,1.049,2.216
		c0.205,0.856,0.307,1.808,0.307,2.857v8.658h-4.344v-8.133c0-1.399-0.18-2.391-0.539-2.975c-0.359-0.583-1.025-0.875-1.998-0.875
		c-0.387,0-0.752,0.035-1.092,0.102c-0.34,0.068-0.646,0.141-0.918,0.22v11.66H287.921z"/>
	<path fill="#AF0A0A" d="M319.435,71.444c0,1.205-0.176,2.309-0.525,3.31c-0.35,1-0.855,1.855-1.516,2.564
		c-0.662,0.71-1.453,1.259-2.377,1.646c-0.922,0.39-1.955,0.584-3.104,0.584c-1.127,0-2.154-0.194-3.076-0.584
		c-0.924-0.388-1.715-0.936-2.377-1.646c-0.66-0.709-1.176-1.564-1.543-2.564c-0.371-1.001-0.555-2.104-0.555-3.31
		s0.189-2.304,0.568-3.294c0.381-0.992,0.904-1.837,1.574-2.536c0.672-0.7,1.469-1.243,2.391-1.633
		c0.924-0.388,1.93-0.583,3.018-0.583c1.107,0,2.123,0.195,3.047,0.583c0.922,0.389,1.715,0.933,2.375,1.633
		c0.662,0.699,1.176,1.544,1.547,2.536C319.251,69.141,319.435,70.239,319.435,71.444z M315.003,71.444
		c0-1.34-0.266-2.396-0.801-3.162c-0.533-0.769-1.297-1.153-2.289-1.153c-0.99,0-1.758,0.384-2.303,1.153
		c-0.543,0.767-0.818,1.822-0.818,3.162c0,1.341,0.275,2.406,0.818,3.192s1.311,1.181,2.303,1.181c0.99,0,1.754-0.395,2.289-1.181
		S315.003,72.785,315.003,71.444z"/>
	<path fill="#AF0A0A" d="M337.132,71.444c0,1.205-0.176,2.309-0.525,3.31c-0.352,1-0.855,1.855-1.518,2.564
		c-0.66,0.71-1.453,1.259-2.375,1.646c-0.924,0.39-1.957,0.584-3.104,0.584c-1.129,0-2.154-0.194-3.076-0.584
		c-0.924-0.388-1.717-0.936-2.377-1.646c-0.66-0.709-1.176-1.564-1.545-2.564c-0.369-1.001-0.553-2.104-0.553-3.31
		s0.189-2.304,0.568-3.294c0.381-0.992,0.904-1.837,1.574-2.536c0.672-0.7,1.469-1.243,2.391-1.633
		c0.924-0.388,1.93-0.583,3.018-0.583c1.107,0,2.123,0.195,3.047,0.583c0.922,0.389,1.715,0.933,2.375,1.633
		c0.662,0.699,1.176,1.544,1.545,2.536C336.945,69.141,337.132,70.239,337.132,71.444z M332.7,71.444c0-1.34-0.27-2.396-0.803-3.162
		c-0.533-0.769-1.297-1.153-2.289-1.153c-0.99,0-1.758,0.384-2.303,1.153c-0.545,0.767-0.816,1.822-0.816,3.162
		c0,1.341,0.271,2.406,0.816,3.192c0.543,0.786,1.313,1.181,2.303,1.181c0.992,0,1.754-0.395,2.289-1.181
		C332.431,73.851,332.7,72.785,332.7,71.444z"/>
	<path fill="#AF0A0A" d="M354.011,78.645c-0.389,0.116-0.836,0.229-1.342,0.336c-0.504,0.107-1.033,0.199-1.588,0.276
		s-1.119,0.142-1.693,0.19c-0.572,0.048-1.121,0.073-1.645,0.073c-1.264,0-2.391-0.186-3.383-0.556
		c-0.99-0.368-1.826-0.897-2.506-1.588c-0.68-0.689-1.199-1.525-1.559-2.507c-0.361-0.981-0.539-2.085-0.539-3.31
		c0-1.243,0.154-2.365,0.465-3.366c0.313-1.001,0.76-1.852,1.342-2.55c0.582-0.7,1.297-1.235,2.143-1.604
		c0.846-0.369,1.813-0.554,2.9-0.554c0.604,0,1.143,0.059,1.619,0.175c0.477,0.117,0.957,0.282,1.443,0.496v-6.938l4.344-0.7v22.126
		H354.011z M344.187,71.356c0,1.341,0.299,2.42,0.902,3.236c0.602,0.816,1.496,1.225,2.682,1.225c0.389,0,0.748-0.015,1.08-0.043
		c0.328-0.029,0.602-0.064,0.816-0.103v-7.9c-0.273-0.175-0.629-0.321-1.064-0.438c-0.438-0.118-0.881-0.176-1.326-0.176
		C345.216,67.159,344.187,68.559,344.187,71.356z"/>
	<path d="M169.745,96.676v3.216h-11.112V83.26h3.744v13.416H169.745z"/>
	<path d="M171.303,93.676c0-1.12,0.173-2.1,0.517-2.939s0.796-1.541,1.355-2.101c0.561-0.56,1.203-0.983,1.933-1.272
		c0.729-0.287,1.477-0.432,2.244-0.432c1.792,0,3.208,0.549,4.248,1.645c1.039,1.096,1.56,2.707,1.56,4.836
		c0,0.207-0.008,0.436-0.023,0.684c-0.017,0.248-0.031,0.469-0.048,0.66h-8.111c0.079,0.736,0.424,1.32,1.031,1.752
		s1.425,0.648,2.448,0.648c0.655,0,1.3-0.061,1.932-0.181c0.633-0.12,1.147-0.268,1.549-0.444l0.479,2.904
		c-0.191,0.096-0.448,0.192-0.769,0.288c-0.321,0.097-0.677,0.181-1.067,0.252c-0.393,0.072-0.813,0.132-1.261,0.181
		c-0.448,0.047-0.896,0.071-1.344,0.071c-1.137,0-2.124-0.168-2.965-0.504c-0.84-0.336-1.535-0.796-2.088-1.38
		c-0.552-0.584-0.96-1.275-1.225-2.076C171.436,95.468,171.303,94.604,171.303,93.676z M179.705,92.308
		c-0.017-0.304-0.068-0.6-0.156-0.888s-0.225-0.543-0.408-0.768c-0.185-0.225-0.416-0.408-0.695-0.553
		c-0.28-0.144-0.628-0.216-1.044-0.216c-0.4,0-0.744,0.067-1.032,0.204c-0.287,0.136-0.527,0.316-0.72,0.54
		c-0.191,0.225-0.34,0.483-0.443,0.78c-0.104,0.295-0.181,0.596-0.229,0.899H179.705z"/>
	<path d="M190.456,86.932c1.057,0,1.936,0.12,2.641,0.36c0.703,0.239,1.268,0.584,1.691,1.032c0.422,0.447,0.723,0.992,0.9,1.632
		c0.176,0.64,0.264,1.352,0.264,2.136v7.439c-0.512,0.112-1.225,0.244-2.137,0.396s-2.018,0.229-3.313,0.229
		c-0.814,0-1.557-0.072-2.221-0.217c-0.664-0.144-1.236-0.38-1.715-0.707c-0.48-0.328-0.85-0.757-1.105-1.285
		c-0.256-0.527-0.383-1.176-0.383-1.943c0-0.735,0.146-1.359,0.443-1.872s0.691-0.92,1.188-1.224
		c0.496-0.305,1.064-0.524,1.705-0.66c0.639-0.137,1.303-0.204,1.992-0.204c0.463,0,0.875,0.021,1.236,0.06
		c0.357,0.04,0.65,0.092,0.875,0.156v-0.336c0-0.607-0.186-1.096-0.553-1.464c-0.369-0.368-1.008-0.552-1.92-0.552
		c-0.607,0-1.209,0.043-1.801,0.132c-0.592,0.088-1.104,0.212-1.535,0.372l-0.457-2.881c0.209-0.063,0.469-0.131,0.781-0.203
		s0.65-0.137,1.02-0.192c0.367-0.056,0.758-0.104,1.164-0.144C189.628,86.951,190.04,86.932,190.456,86.932z M190.743,97.396
		c0.352,0,0.688-0.009,1.008-0.025c0.32-0.016,0.576-0.039,0.77-0.071v-2.712c-0.145-0.032-0.359-0.063-0.648-0.096
		c-0.287-0.032-0.551-0.049-0.791-0.049c-0.336,0-0.652,0.021-0.949,0.061c-0.295,0.041-0.555,0.115-0.777,0.229
		c-0.227,0.111-0.4,0.264-0.529,0.455c-0.127,0.192-0.191,0.432-0.191,0.721c0,0.56,0.188,0.947,0.564,1.164
		C189.572,97.287,190.087,97.396,190.743,97.396z"/>
	<path d="M206.798,90.436c-0.318-0.08-0.695-0.164-1.127-0.252c-0.434-0.088-0.896-0.132-1.393-0.132
		c-0.225,0-0.492,0.021-0.805,0.06c-0.313,0.041-0.549,0.084-0.709,0.133v9.647h-3.574V87.939c0.639-0.224,1.395-0.436,2.268-0.636
		s1.844-0.3,2.916-0.3c0.191,0,0.424,0.012,0.695,0.036s0.545,0.056,0.816,0.096s0.543,0.088,0.816,0.144
		c0.27,0.057,0.504,0.125,0.695,0.205L206.798,90.436z"/>
	<path d="M209.32,87.699c0.607-0.176,1.393-0.34,2.352-0.491c0.961-0.152,1.969-0.228,3.023-0.228c1.072,0,1.965,0.139,2.678,0.42
		c0.711,0.279,1.275,0.676,1.691,1.188s0.711,1.12,0.887,1.824c0.178,0.703,0.266,1.488,0.266,2.352v7.128h-3.576v-6.696
		c0-1.151-0.152-1.968-0.455-2.447c-0.305-0.48-0.873-0.721-1.705-0.721c-0.256,0-0.527,0.013-0.814,0.037
		c-0.289,0.023-0.545,0.051-0.77,0.084v9.743h-3.576V87.699L209.32,87.699z"/>
	<path d="M227.366,83.619c0,0.656-0.211,1.173-0.635,1.549c-0.426,0.376-0.926,0.564-1.5,0.564c-0.576,0-1.076-0.188-1.5-0.564
		c-0.426-0.375-0.637-0.893-0.637-1.549c0-0.655,0.211-1.172,0.637-1.547c0.424-0.377,0.924-0.564,1.5-0.564
		c0.574,0,1.074,0.188,1.5,0.564C227.156,82.447,227.366,82.964,227.366,83.619z M227.031,99.892h-3.576V87.268h3.576V99.892z"/>
	<path d="M230.39,87.699c0.607-0.176,1.393-0.34,2.354-0.491c0.959-0.152,1.967-0.228,3.021-0.228c1.072,0,1.965,0.139,2.678,0.42
		c0.711,0.279,1.275,0.676,1.691,1.188s0.711,1.12,0.889,1.824c0.176,0.703,0.264,1.488,0.264,2.352v7.128h-3.576v-6.696
		c0-1.151-0.15-1.968-0.455-2.447c-0.305-0.48-0.873-0.721-1.705-0.721c-0.256,0-0.527,0.013-0.814,0.037
		c-0.287,0.023-0.545,0.051-0.77,0.084v9.743h-3.576V87.699L230.39,87.699z"/>
	<path d="M255.423,98.308c0,2.063-0.523,3.597-1.572,4.597s-2.668,1.5-4.859,1.5c-0.77,0-1.535-0.068-2.305-0.205
		c-0.768-0.135-1.479-0.315-2.137-0.539l0.625-3c0.561,0.224,1.146,0.399,1.764,0.527c0.617,0.129,1.316,0.192,2.102,0.192
		c1.023,0,1.746-0.224,2.172-0.672c0.424-0.448,0.635-1.023,0.635-1.728v-0.457c-0.383,0.176-0.779,0.31-1.188,0.396
		c-0.406,0.088-0.852,0.132-1.33,0.132c-1.744,0-3.082-0.517-4.01-1.548c-0.928-1.032-1.393-2.477-1.393-4.332
		c0-0.928,0.145-1.771,0.434-2.532c0.287-0.76,0.707-1.412,1.26-1.956s1.229-0.964,2.027-1.26s1.705-0.443,2.713-0.443
		c0.432,0,0.875,0.021,1.332,0.06c0.455,0.04,0.908,0.092,1.355,0.155c0.447,0.064,0.875,0.141,1.283,0.229s0.771,0.18,1.092,0.275
		V98.308L255.423,98.308z M247.573,93.172c0,2,0.809,3,2.426,3c0.367,0,0.711-0.048,1.031-0.145c0.32-0.096,0.592-0.207,0.814-0.336
		V89.98c-0.176-0.033-0.383-0.061-0.623-0.084c-0.24-0.024-0.521-0.037-0.84-0.037c-0.943,0-1.648,0.313-2.111,0.937
		C247.806,91.42,247.573,92.212,247.573,93.172z"/>
	<path d="M275.941,99.892c-0.188-0.577-0.385-1.171-0.598-1.78c-0.213-0.608-0.426-1.215-0.637-1.819h-6.496
		c-0.211,0.606-0.42,1.215-0.631,1.825c-0.211,0.608-0.408,1.201-0.59,1.774h-3.889c0.627-1.792,1.221-3.448,1.781-4.968
		s1.111-2.952,1.648-4.296c0.537-1.345,1.066-2.62,1.588-3.828c0.523-1.208,1.063-2.388,1.625-3.54h3.551
		c0.545,1.152,1.084,2.332,1.615,3.54c0.529,1.208,1.063,2.483,1.604,3.828c0.537,1.344,1.09,2.776,1.65,4.296
		c0.563,1.52,1.158,3.176,1.785,4.968H275.941z M271.443,87.027c-0.084,0.241-0.207,0.57-0.367,0.986s-0.344,0.896-0.549,1.441
		c-0.207,0.545-0.438,1.145-0.689,1.8c-0.254,0.655-0.512,1.342-0.773,2.062h4.756c-0.254-0.722-0.5-1.41-0.74-2.067
		c-0.238-0.657-0.465-1.259-0.68-1.804s-0.402-1.024-0.564-1.439C271.673,87.59,271.542,87.264,271.443,87.027z"/>
	<path d="M286.884,100.132c-1.039-0.017-1.883-0.128-2.529-0.336c-0.648-0.208-1.162-0.5-1.537-0.876
		c-0.377-0.375-0.633-0.832-0.77-1.368c-0.135-0.536-0.203-1.14-0.203-1.812V81.844l3.576-0.576V95.02
		c0,0.32,0.023,0.608,0.072,0.864c0.047,0.256,0.139,0.472,0.273,0.647c0.139,0.177,0.332,0.32,0.59,0.433
		c0.256,0.112,0.6,0.185,1.031,0.216L286.884,100.132z"/>
	<path d="M294.468,100.132c-1.039-0.017-1.883-0.128-2.529-0.336c-0.648-0.208-1.162-0.5-1.537-0.876
		c-0.377-0.375-0.633-0.832-0.77-1.368c-0.135-0.536-0.203-1.14-0.203-1.812V81.844l3.576-0.576V95.02
		c0,0.32,0.023,0.608,0.072,0.864c0.047,0.256,0.139,0.472,0.273,0.647c0.139,0.177,0.332,0.32,0.59,0.433
		c0.256,0.112,0.6,0.185,1.031,0.216L294.468,100.132z"/>
	<path d="M300.925,83.619c0,0.656-0.213,1.173-0.637,1.549s-0.924,0.564-1.5,0.564s-1.076-0.188-1.5-0.564
		c-0.424-0.375-0.635-0.893-0.635-1.549c0-0.655,0.211-1.172,0.635-1.547c0.424-0.377,0.924-0.564,1.5-0.564s1.076,0.188,1.5,0.564
		C300.712,82.447,300.925,82.964,300.925,83.619z M300.589,99.892h-3.576V87.268h3.576V99.892z"/>
	<path d="M308.486,86.932c1.057,0,1.936,0.12,2.641,0.36c0.703,0.239,1.268,0.584,1.691,1.032c0.422,0.447,0.723,0.992,0.898,1.632
		c0.178,0.64,0.266,1.352,0.266,2.136v7.439c-0.514,0.112-1.225,0.244-2.137,0.396s-2.018,0.229-3.313,0.229
		c-0.816,0-1.557-0.072-2.221-0.217c-0.664-0.144-1.236-0.38-1.717-0.707c-0.479-0.328-0.848-0.757-1.104-1.285
		c-0.256-0.527-0.383-1.176-0.383-1.943c0-0.735,0.146-1.359,0.443-1.872c0.295-0.513,0.691-0.92,1.188-1.224
		c0.496-0.305,1.064-0.524,1.705-0.66c0.639-0.137,1.303-0.204,1.992-0.204c0.463,0,0.875,0.021,1.234,0.06
		c0.359,0.04,0.652,0.092,0.877,0.156v-0.336c0-0.607-0.186-1.096-0.553-1.464c-0.369-0.368-1.008-0.552-1.92-0.552
		c-0.607,0-1.209,0.043-1.801,0.132c-0.592,0.088-1.104,0.212-1.535,0.372l-0.457-2.881c0.209-0.063,0.469-0.131,0.781-0.203
		s0.65-0.137,1.02-0.192c0.367-0.056,0.756-0.104,1.164-0.144C307.657,86.951,308.07,86.932,308.486,86.932z M308.773,97.396
		c0.352,0,0.688-0.009,1.008-0.025c0.32-0.016,0.576-0.039,0.77-0.071v-2.712c-0.145-0.032-0.359-0.063-0.648-0.096
		c-0.287-0.032-0.551-0.049-0.791-0.049c-0.336,0-0.652,0.021-0.949,0.061c-0.295,0.041-0.555,0.115-0.779,0.229
		c-0.225,0.111-0.398,0.264-0.527,0.455c-0.127,0.192-0.191,0.432-0.191,0.721c0,0.56,0.188,0.947,0.564,1.164
		C307.601,97.287,308.116,97.396,308.773,97.396z"/>
	<path d="M317.22,87.699c0.607-0.176,1.393-0.34,2.354-0.491c0.959-0.152,1.967-0.228,3.021-0.228c1.072,0,1.965,0.139,2.678,0.42
		c0.711,0.279,1.275,0.676,1.691,1.188s0.711,1.12,0.889,1.824c0.176,0.703,0.264,1.488,0.264,2.352v7.128h-3.576v-6.696
		c0-1.151-0.152-1.968-0.455-2.447c-0.305-0.48-0.873-0.721-1.705-0.721c-0.256,0-0.527,0.013-0.814,0.037
		c-0.287,0.023-0.545,0.051-0.77,0.084v9.743h-3.576V87.699L317.22,87.699z"/>
	<path d="M330.755,93.58c0-0.912,0.148-1.772,0.445-2.58c0.295-0.809,0.723-1.512,1.283-2.112s1.238-1.076,2.039-1.428
		c0.801-0.353,1.713-0.528,2.736-0.528c0.672,0,1.287,0.061,1.848,0.18c0.561,0.121,1.104,0.293,1.633,0.517l-0.744,2.856
		c-0.336-0.127-0.703-0.24-1.104-0.336c-0.4-0.097-0.848-0.145-1.344-0.145c-1.057,0-1.846,0.328-2.363,0.984
		c-0.52,0.655-0.781,1.52-0.781,2.592c0,1.136,0.244,2.016,0.732,2.64s1.34,0.937,2.557,0.937c0.432,0,0.895-0.041,1.393-0.121
		c0.494-0.079,0.951-0.207,1.367-0.383l0.504,2.928c-0.416,0.176-0.936,0.328-1.561,0.455c-0.623,0.129-1.313,0.192-2.063,0.192
		c-1.152,0-2.145-0.172-2.977-0.516c-0.832-0.345-1.518-0.812-2.053-1.404c-0.535-0.592-0.928-1.292-1.176-2.1
		S330.755,94.523,330.755,93.58z"/>
	<path d="M342.157,93.676c0-1.12,0.172-2.1,0.516-2.939s0.795-1.541,1.355-2.101s1.203-0.983,1.932-1.272
		c0.73-0.287,1.479-0.432,2.244-0.432c1.793,0,3.209,0.549,4.248,1.645c1.041,1.096,1.561,2.707,1.561,4.836
		c0,0.207-0.008,0.436-0.023,0.684c-0.018,0.248-0.031,0.469-0.047,0.66h-8.113c0.08,0.736,0.424,1.32,1.033,1.752
		c0.605,0.432,1.424,0.648,2.447,0.648c0.654,0,1.301-0.061,1.932-0.181c0.633-0.12,1.146-0.268,1.549-0.444l0.48,2.904
		c-0.193,0.096-0.449,0.192-0.77,0.288c-0.322,0.097-0.676,0.181-1.066,0.252c-0.395,0.072-0.814,0.132-1.262,0.181
		c-0.447,0.047-0.896,0.071-1.344,0.071c-1.137,0-2.125-0.168-2.965-0.504s-1.535-0.796-2.088-1.38
		c-0.551-0.584-0.959-1.275-1.225-2.076C342.288,95.468,342.157,94.604,342.157,93.676z M350.556,92.308
		c-0.016-0.304-0.066-0.6-0.154-0.888s-0.227-0.543-0.408-0.768c-0.186-0.225-0.416-0.408-0.697-0.553
		c-0.279-0.144-0.627-0.216-1.043-0.216c-0.4,0-0.744,0.067-1.033,0.204c-0.285,0.136-0.525,0.316-0.719,0.54
		c-0.191,0.225-0.34,0.483-0.443,0.78c-0.104,0.295-0.182,0.596-0.229,0.899H350.556z"/>
</g>
</svg>
