<?xml version="1.0" encoding="utf-8"?>
<!-- Generator: Adobe Illustrator 15.1.0, SVG Export Plug-In . SVG Version: 6.00 Build 0)  -->
<!DOCTYPE svg PUBLIC "-//W3C//DTD SVG 1.1//EN" "http://www.w3.org/Graphics/SVG/1.1/DTD/svg11.dtd">
<svg version="1.1" id="Logo" xmlns="http://www.w3.org/2000/svg" xmlns:xlink="http://www.w3.org/1999/xlink" x="0px" y="0px"
	 width="479.682px" height="141.751px" viewBox="0 0 479.682 141.751" enable-background="new 0 0 479.682 141.751"
	 xml:space="preserve">
<path fill="#282828" d="M98.92,49.928v25.389h6.317v-9.717h-3.889l21.867-19.923V31.582h6.318c0,0,20.895,3.404,28.184-0.968
	c-9.23,13.604-16.521,17.005-16.521,17.005s9.232-8.745,10.689-13.605c-11.178,4.86-22.84,2.429-22.84,2.429v9.234L150.429,65.6
	h-7.775v14.576h-4.858v-18.95l-11.662-12.148L109.61,64.143v13.119H96.13V47.757L98.92,49.928z"/>
<g>
	<g>
		<polygon fill="#282828" points="73.475,57.502 74.639,59.51 87.109,46.613 107.48,53.052 87.2,42.682 		"/>
		<polygon fill="#282828" points="79.225,52.238 75.457,55.652 75.457,49.685 79.225,49.685 		"/>
	</g>
</g>
<g>
	<g>
		<polygon fill="#282828" points="91.266,38.713 91.266,42.024 105.602,33.501 119.6,41.772 106.035,30.377 		"/>
		<polygon fill="#282828" points="97.689,35.88 94.525,38.752 94.525,33.74 97.689,33.74 		"/>
	</g>
</g>
<rect x="93.508" y="38.163" fill="#282828" width="1.807" height="9.289"/>
<rect x="112.08" y="37.389" fill="#282828" width="1.809" height="18.831"/>
<path id="Right_Tail" display="none" fill="#AF0A0A" d="M294.475,133.156c0,0-24.817,2.73-61.373,18.365h9.398
	C260.893,143.618,278.604,137.061,294.475,133.156z"/>
<path id="Left_Tail" display="none" fill="#282828" d="M48.496,146.252c15.071,0.289,29.279,2.283,42.344,5.27h7.301
	C69.963,145.045,48.496,146.252,48.496,146.252z"/>
<path fill="#F05A28" d="M25.257,126.775c-0.59-0.135-1.174-0.274-1.749-0.424C24.089,126.504,24.671,126.645,25.257,126.775z"/>
<g id="Lower_Left_Red">
	<path display="none" fill="#AF0A0A" d="M5.632,118.947c-4.482-0.387,24.569,5.621,56.271-6.348
		c-1.414-0.843-1.618-0.953-3.098-1.801C43.327,118.146,9.914,119.316,5.632,118.947z"/>
	<path display="none" fill="#AF0A0A" d="M75.501,103.209c-4.396,2.262-8.625,4.209-12.768,5.895c1.303,0.82,1.741,1.097,3.042,1.959
		c3.86-1.778,8.232-3.572,12.188-5.978C77.039,104.378,76.493,103.948,75.501,103.209z"/>
	<path display="none" fill="#AF0A0A" d="M77.367,102.246c0.845,0.719,1.577,1.354,2.418,2.1c0.646-0.41,8.667-4.731,11.967-6.684
		c-0.564-0.508-1.941-1.541-2.632-2.143C85.041,98.014,81.134,100.254,77.367,102.246z"/>
	<path display="none" fill="#AF0A0A" d="M87.152,112.471c-3.729,1.973-7.549,3.853-11.419,5.578c1.05,0.779,1.051,0.762,2.096,1.575
		c3.673-1.538,7.596-3.293,11.377-5.381C88.34,113.475,88.232,113.389,87.152,112.471z"/>
	<path display="none" fill="#AF0A0A" d="M25.257,126.775c15.756,3.609,32.667,0.343,49.456-6.155
		c-1.084-0.729-0.802-0.536-1.948-1.282C56.635,126.143,39.821,130.032,25.257,126.775z"/>
	<path display="none" fill="#AF0A0A" d="M31.475,141.75c14.625-0.375,35.664-2.898,55.016-12.887
		c-0.885-0.65-1.813-1.328-2.762-2.012C68.655,134.977,51.779,139.523,31.475,141.75z"/>
</g>
<g>
	<g>
		<path fill="#AF0A0A" d="M122.973,105.199c17.361-9.727,31.708-21.014,31.708-21.014h-13.454
			c-15.406,18.268-55.84,40.279-100.006,55.349C84.193,127.539,110.236,112.334,122.973,105.199z"/>
		<path fill="#AF0A0A" d="M78.083,112.512c27.521-10.654,44.924-28.471,45.658-28.55c0.733-0.079-8.638-0.035-8.638-0.035
			c-9.941,10.173-36.767,33.636-95.328,41.304C56.356,122.205,73.204,113.99,78.083,112.512z"/>
		<path fill="#AF0A0A" d="M99.905,83.961l-8.67-0.047C85.427,91.128,62.316,106.896,0,111.984c21.335,0,45.382-2.244,64.062-8.67
			C85.874,95.813,99.905,83.961,99.905,83.961z"/>
	</g>
	<path fill="#AF0A0A" d="M31.077,115.984"/>
</g>
<path fill="#282828" d="M82.712,83.691h-7.255c13.119,7.716,21.819,13.119,32.59,20.881C98.698,96.114,90.041,88.736,82.712,83.691z
	"/>
<path fill="#282828" d="M60.067,83.691H45.254c28.678,11.642,52.887,30.334,63.274,39.41
	C99.393,112.461,71.749,90.014,60.067,83.691z"/>
<path fill="#282828" d="M20.848,83.691H0c33.571,4.968,94.445,47.836,109.675,58.06C90.521,125.23,35.159,87.198,20.848,83.691z"/>
<g id="Right_Lower_Red">
	<path display="none" fill="#AF0A0A" d="M89.629,95.206c0.563,0.578,1.658,1.743,2.215,2.342
		c7.785-4.329,16.888-9.438,23.767-13.856h-9.43C101.737,88.855,94.848,92.208,89.629,95.206z"/>
	<path display="none" fill="#AF0A0A" d="M87.932,112.055c0.875,0.881,1.017,1.016,1.881,1.93
		c7.148-3.116,38.018-23.146,49.04-30.293h-7.981C126.277,87.073,105.156,102.831,87.932,112.055z"/>
	<path display="none" fill="#AF0A0A" d="M154.805,83.889l6.657-0.197c-24.736,11.629-69.294,41.944-73.365,44.349
		c-0.846-0.741-1.692-1.467-2.54-2.187C94.586,120.863,144.266,88.777,154.805,83.889z"/>
	<path display="none" fill="#AF0A0A" d="M257.918,152.814c4.692-1.336,17.453-1.39,22.52-2.424c0,0-15.813-0.813-28.449,2.424"/>
</g>
<g>
	<path fill="#AF0A0A" d="M70.252,73.609V32.556h-4.375L57.133,0l-7.775,33.042l-2.917,2.427V51.99c0,0-3.401,0-10.69,0
		s-6.8,23.127-6.8,23.127h-2.917v-16.81c-20.408,0-20.408,16.036-20.408,16.036v5.831H9.39v-4.369
		c0-14.215,14.58-12.758,14.58-12.758V77.99h8.745c0,0,0-3.281,0-12.757c0-9.474,6.194-11.294,6.194-11.294h11.298V36.442
		l2.55-2.917l5.104-20.407l5.104,23.688h4.737v40.455h10.116v-3.651H70.252z"/>
	<polygon fill="#282828" points="77.818,55.713 77.818,73.609 77.818,77.261 80.856,77.261 80.856,52.006 	"/>
	<line fill="none" x1="77.818" y1="73.609" x2="77.818" y2="77.261"/>
</g>
<path fill="#AF0A0A" d="M180.31,74.316c-2.144-3.807-4.464-7.567-6.96-11.279c-2.496-3.712-5.152-7.216-7.968-10.512v21.792h-7.392
	V41.053h6.096c1.056,1.056,2.224,2.352,3.504,3.888c1.28,1.536,2.584,3.176,3.912,4.92c1.327,1.745,2.647,3.552,3.96,5.424
	c1.312,1.872,2.544,3.672,3.696,5.4V41.053h7.439v33.264H180.31z"/>
<path fill="#AF0A0A" d="M192.598,61.885c0-2.239,0.344-4.2,1.032-5.88c0.688-1.68,1.591-3.08,2.712-4.2
	c1.119-1.12,2.407-1.968,3.863-2.544c1.456-0.576,2.952-0.864,4.488-0.864c3.584,0,6.416,1.096,8.496,3.288s3.12,5.417,3.12,9.672
	c0,0.416-0.017,0.872-0.048,1.368c-0.032,0.496-0.064,0.936-0.097,1.32h-16.224c0.16,1.472,0.848,2.64,2.064,3.504
	c1.216,0.864,2.848,1.296,4.896,1.296c1.312,0,2.6-0.12,3.864-0.36c1.264-0.24,2.296-0.536,3.096-0.888l0.96,5.808
	c-0.384,0.193-0.896,0.385-1.536,0.576c-0.641,0.193-1.352,0.361-2.136,0.504c-0.784,0.145-1.624,0.264-2.52,0.361
	c-0.896,0.096-1.793,0.143-2.688,0.143c-2.272,0-4.248-0.336-5.928-1.008s-3.072-1.592-4.176-2.76
	c-1.104-1.167-1.92-2.551-2.448-4.152C192.862,65.469,192.598,63.741,192.598,61.885z M209.398,59.149
	c-0.032-0.607-0.137-1.2-0.312-1.776c-0.177-0.576-0.449-1.088-0.816-1.536c-0.368-0.448-0.833-0.816-1.392-1.104
	c-0.561-0.288-1.257-0.432-2.089-0.432c-0.8,0-1.487,0.137-2.063,0.408c-0.576,0.272-1.056,0.632-1.44,1.08
	c-0.384,0.448-0.68,0.968-0.888,1.56c-0.208,0.592-0.36,1.192-0.456,1.8H209.398z"/>
<path fill="#AF0A0A" d="M229.654,41.773c0,1.313-0.424,2.344-1.271,3.096c-0.849,0.752-1.848,1.128-3,1.128s-2.152-0.376-3-1.128
	c-0.849-0.751-1.272-1.783-1.272-3.096c0-1.312,0.424-2.344,1.272-3.096c0.848-0.751,1.848-1.128,3-1.128s2.151,0.376,3,1.128
	C229.23,39.429,229.654,40.461,229.654,41.773z M228.982,74.316h-7.151V49.069h7.151V74.316z"/>
<path fill="#AF0A0A" d="M257.493,71.149c0,4.128-1.049,7.191-3.145,9.193c-2.096,1.998-5.336,3-9.72,3
	c-1.536,0-3.072-0.137-4.608-0.408c-1.536-0.273-2.96-0.633-4.271-1.08l1.248-6c1.119,0.447,2.296,0.799,3.527,1.055
	s2.632,0.385,4.2,0.385c2.048,0,3.496-0.449,4.344-1.344c0.848-0.896,1.272-2.047,1.272-3.457v-0.911
	c-0.768,0.353-1.56,0.616-2.376,0.792s-1.704,0.264-2.664,0.264c-3.488,0-6.16-1.031-8.016-3.096
	c-1.856-2.064-2.784-4.952-2.784-8.664c0-1.855,0.288-3.544,0.864-5.064c0.575-1.52,1.416-2.824,2.52-3.912
	c1.104-1.087,2.455-1.927,4.056-2.52c1.601-0.592,3.408-0.888,5.425-0.888c0.863,0,1.752,0.041,2.664,0.12
	c0.911,0.081,1.815,0.185,2.712,0.312c0.896,0.128,1.752,0.281,2.567,0.456c0.816,0.176,1.544,0.36,2.185,0.552V71.149z
	 M241.797,60.877c0,4,1.615,6,4.848,6c0.736,0,1.424-0.096,2.064-0.288c0.64-0.192,1.184-0.416,1.632-0.672V54.493
	c-0.353-0.063-0.768-0.12-1.248-0.168c-0.479-0.048-1.04-0.072-1.68-0.072c-1.889,0-3.297,0.624-4.225,1.872
	S241.797,58.957,241.797,60.877z"/>
<path fill="#AF0A0A" d="M287.685,61.693c0,2.016-0.296,3.84-0.888,5.472c-0.593,1.632-1.448,3.024-2.568,4.176
	c-1.12,1.151-2.496,2.04-4.128,2.665c-1.632,0.623-3.488,0.936-5.568,0.936c-0.863,0-1.769-0.041-2.712-0.121
	c-0.944-0.08-1.872-0.184-2.784-0.311c-0.911-0.129-1.784-0.281-2.615-0.457c-0.833-0.176-1.568-0.359-2.208-0.553V38.221
	l7.151-1.152v12.576c0.8-0.352,1.632-0.624,2.496-0.816c0.864-0.192,1.792-0.288,2.784-0.288c1.792,0,3.376,0.312,4.752,0.936
	s2.527,1.512,3.456,2.664c0.928,1.152,1.632,2.536,2.112,4.152C287.445,57.909,287.685,59.709,287.685,61.693z M280.389,61.501
	c0-4.608-1.696-6.912-5.088-6.912c-0.736,0-1.464,0.096-2.185,0.288c-0.72,0.192-1.304,0.432-1.752,0.72v13.008
	c0.352,0.064,0.8,0.12,1.345,0.168c0.543,0.048,1.135,0.072,1.775,0.072c1.952,0,3.424-0.672,4.416-2.016
	C279.892,65.485,280.389,63.709,280.389,61.501z"/>
<path fill="#AF0A0A" d="M293.205,74.316V38.221l7.151-1.152v12.096c0.48-0.16,1.096-0.312,1.849-0.456
	c0.751-0.144,1.479-0.216,2.184-0.216c2.048,0,3.752,0.281,5.112,0.84c1.359,0.56,2.447,1.352,3.264,2.376
	c0.816,1.024,1.392,2.24,1.729,3.648c0.336,1.409,0.504,2.976,0.504,4.704v14.255h-7.152V60.925c0-2.304-0.296-3.936-0.888-4.896
	c-0.593-0.96-1.688-1.44-3.288-1.44c-0.641,0-1.24,0.056-1.8,0.168c-0.561,0.113-1.064,0.232-1.513,0.36v19.2H293.205z"/>
<path fill="#AF0A0A" d="M345.092,61.645c0,1.984-0.287,3.8-0.863,5.448c-0.576,1.648-1.409,3.056-2.496,4.224
	c-1.089,1.168-2.393,2.072-3.912,2.712c-1.521,0.639-3.225,0.959-5.112,0.959c-1.856,0-3.544-0.32-5.063-0.959
	c-1.521-0.641-2.825-1.544-3.912-2.712c-1.089-1.168-1.937-2.576-2.544-4.224c-0.608-1.647-0.912-3.463-0.912-5.448
	c0-1.984,0.312-3.792,0.936-5.424c0.624-1.632,1.488-3.024,2.593-4.176c1.104-1.152,2.415-2.047,3.936-2.688
	c1.52-0.64,3.176-0.96,4.968-0.96c1.824,0,3.496,0.32,5.017,0.96c1.52,0.641,2.823,1.536,3.911,2.688s1.937,2.544,2.545,4.176
	C344.788,57.853,345.092,59.661,345.092,61.645z M337.796,61.645c0-2.208-0.439-3.944-1.319-5.208
	c-0.881-1.264-2.137-1.896-3.769-1.896s-2.896,0.632-3.792,1.896c-0.896,1.264-1.344,3-1.344,5.208s0.447,3.96,1.344,5.256
	c0.896,1.296,2.16,1.944,3.792,1.944s2.888-0.648,3.769-1.944C337.357,65.605,337.796,63.853,337.796,61.645z"/>
<path fill="#AF0A0A" d="M365.827,55.405c-0.641-0.16-1.393-0.328-2.256-0.504c-0.864-0.175-1.793-0.264-2.784-0.264
	c-0.448,0-0.984,0.041-1.608,0.12c-0.624,0.08-1.097,0.168-1.416,0.264v19.295h-7.151V50.413c1.279-0.448,2.791-0.872,4.536-1.272
	c1.743-0.4,3.688-0.6,5.831-0.6c0.385,0,0.848,0.024,1.393,0.072c0.544,0.048,1.087,0.113,1.632,0.192
	c0.544,0.081,1.088,0.176,1.632,0.288c0.544,0.113,1.008,0.249,1.393,0.408L365.827,55.405z"/>
<path fill="#AF0A0A" d="M370.867,74.316V38.221l7.151-1.152v12.096c0.48-0.16,1.096-0.312,1.849-0.456
	c0.751-0.144,1.479-0.216,2.184-0.216c2.048,0,3.752,0.281,5.112,0.84c1.359,0.56,2.447,1.352,3.264,2.376
	c0.816,1.024,1.392,2.24,1.729,3.648c0.336,1.409,0.504,2.976,0.504,4.704v14.255h-7.152V60.925c0-2.304-0.296-3.936-0.888-4.896
	c-0.593-0.96-1.688-1.44-3.288-1.44c-0.641,0-1.24,0.056-1.8,0.168c-0.561,0.113-1.064,0.232-1.513,0.36v19.2H370.867z"/>
<path fill="#AF0A0A" d="M422.754,61.645c0,1.984-0.287,3.8-0.863,5.448c-0.576,1.648-1.409,3.056-2.496,4.224
	c-1.089,1.168-2.393,2.072-3.912,2.712c-1.521,0.639-3.225,0.959-5.112,0.959c-1.856,0-3.544-0.32-5.063-0.959
	c-1.521-0.641-2.825-1.544-3.912-2.712c-1.089-1.168-1.937-2.576-2.544-4.224c-0.608-1.647-0.912-3.463-0.912-5.448
	c0-1.984,0.312-3.792,0.936-5.424c0.624-1.632,1.488-3.024,2.593-4.176c1.104-1.152,2.415-2.047,3.936-2.688
	c1.52-0.64,3.176-0.96,4.968-0.96c1.824,0,3.496,0.32,5.017,0.96c1.52,0.641,2.823,1.536,3.911,2.688s1.937,2.544,2.545,4.176
	C422.45,57.853,422.754,59.661,422.754,61.645z M415.458,61.645c0-2.208-0.439-3.944-1.319-5.208
	c-0.881-1.264-2.137-1.896-3.769-1.896s-2.896,0.632-3.792,1.896c-0.896,1.264-1.344,3-1.344,5.208s0.447,3.96,1.344,5.256
	c0.896,1.296,2.16,1.944,3.792,1.944s2.888-0.648,3.769-1.944C415.019,65.605,415.458,63.853,415.458,61.645z"/>
<path fill="#AF0A0A" d="M451.891,61.645c0,1.984-0.287,3.8-0.863,5.448c-0.576,1.648-1.409,3.056-2.496,4.224
	c-1.089,1.168-2.393,2.072-3.912,2.712c-1.521,0.639-3.225,0.959-5.112,0.959c-1.856,0-3.544-0.32-5.063-0.959
	c-1.521-0.641-2.825-1.544-3.912-2.712c-1.089-1.168-1.937-2.576-2.544-4.224c-0.608-1.647-0.912-3.463-0.912-5.448
	c0-1.984,0.312-3.792,0.936-5.424c0.624-1.632,1.488-3.024,2.593-4.176c1.104-1.152,2.415-2.047,3.936-2.688
	c1.52-0.64,3.176-0.96,4.968-0.96c1.824,0,3.496,0.32,5.017,0.96c1.52,0.641,2.823,1.536,3.911,2.688s1.937,2.544,2.545,4.176
	C451.587,57.853,451.891,59.661,451.891,61.645z M444.595,61.645c0-2.208-0.439-3.944-1.319-5.208
	c-0.881-1.264-2.137-1.896-3.769-1.896s-2.896,0.632-3.792,1.896c-0.896,1.264-1.344,3-1.344,5.208s0.447,3.96,1.344,5.256
	c0.896,1.296,2.16,1.944,3.792,1.944s2.888-0.648,3.769-1.944C444.156,65.605,444.595,63.853,444.595,61.645z"/>
<path fill="#AF0A0A" d="M479.682,73.5c-0.641,0.193-1.376,0.377-2.208,0.553s-1.704,0.328-2.616,0.457
	c-0.911,0.127-1.84,0.23-2.783,0.311c-0.944,0.08-1.849,0.121-2.713,0.121c-2.08,0-3.936-0.305-5.567-0.912s-3.009-1.48-4.128-2.616
	c-1.121-1.136-1.977-2.512-2.568-4.128c-0.593-1.615-0.888-3.432-0.888-5.448c0-2.047,0.256-3.896,0.768-5.544
	c0.512-1.648,1.248-3.048,2.208-4.2c0.96-1.152,2.137-2.032,3.528-2.64s2.983-0.912,4.776-0.912c0.991,0,1.879,0.096,2.663,0.288
	c0.784,0.192,1.576,0.464,2.377,0.816V38.221l7.151-1.152V73.5z M463.506,61.501c0,2.208,0.496,3.984,1.488,5.328
	c0.991,1.344,2.464,2.016,4.416,2.016c0.64,0,1.231-0.024,1.775-0.072s0.992-0.104,1.345-0.168V55.597
	c-0.449-0.288-1.032-0.528-1.753-0.72c-0.72-0.192-1.448-0.288-2.184-0.288C465.201,54.589,463.506,56.893,463.506,61.501z"/>
<path d="M176.022,104.979v5.297h-18.303V82.88h6.167v22.1H176.022z"/>
<path d="M178.591,100.037c0-1.845,0.282-3.459,0.85-4.843c0.566-1.383,1.311-2.536,2.233-3.459s1.982-1.62,3.183-2.096
	c1.198-0.474,2.431-0.71,3.696-0.71c2.95,0,5.284,0.902,6.997,2.707c1.713,1.806,2.57,4.461,2.57,7.965
	c0,0.344-0.015,0.719-0.04,1.127c-0.026,0.41-0.054,0.771-0.079,1.088h-13.362c0.132,1.213,0.697,2.174,1.7,2.886
	c1.001,0.712,2.346,1.066,4.032,1.066c1.08,0,2.141-0.099,3.183-0.296c1.04-0.197,1.891-0.441,2.55-0.731l0.79,4.783
	c-0.316,0.158-0.738,0.317-1.265,0.475c-0.527,0.158-1.114,0.297-1.76,0.415c-0.646,0.119-1.337,0.217-2.075,0.297
	c-0.738,0.079-1.477,0.118-2.214,0.118c-1.871,0-3.498-0.276-4.882-0.83s-2.53-1.311-3.439-2.273
	c-0.909-0.961-1.582-2.102-2.016-3.419C178.808,102.989,178.591,101.566,178.591,100.037z M192.427,97.783
	c-0.026-0.499-0.112-0.987-0.257-1.462c-0.146-0.475-0.37-0.896-0.673-1.265s-0.685-0.672-1.146-0.91
	c-0.461-0.237-1.034-0.355-1.719-0.355c-0.659,0-1.226,0.112-1.7,0.336c-0.475,0.225-0.87,0.521-1.186,0.89
	c-0.316,0.369-0.561,0.797-0.731,1.285c-0.172,0.488-0.297,0.982-0.376,1.481H192.427z"/>
<path d="M210.137,88.93c1.74,0,3.189,0.196,4.349,0.593c1.16,0.395,2.089,0.962,2.787,1.699c0.698,0.738,1.192,1.635,1.482,2.688
	c0.29,1.056,0.436,2.229,0.436,3.52v12.254c-0.845,0.186-2.017,0.402-3.52,0.652c-1.501,0.251-3.319,0.376-5.455,0.376
	c-1.344,0-2.563-0.119-3.656-0.355c-1.094-0.238-2.035-0.626-2.826-1.166c-0.791-0.541-1.397-1.246-1.818-2.116
	c-0.422-0.869-0.633-1.937-0.633-3.202c0-1.211,0.243-2.239,0.731-3.083c0.487-0.843,1.14-1.515,1.956-2.016
	s1.753-0.863,2.808-1.088c1.053-0.224,2.147-0.336,3.281-0.336c0.763,0,1.442,0.034,2.035,0.1c0.593,0.066,1.074,0.151,1.443,0.256
	v-0.553c0-1.001-0.303-1.805-0.91-2.411c-0.605-0.606-1.66-0.909-3.161-0.909c-1.003,0-1.991,0.072-2.966,0.217
	c-0.976,0.146-1.818,0.35-2.53,0.612l-0.75-4.743c0.341-0.104,0.77-0.218,1.284-0.335c0.515-0.119,1.073-0.225,1.681-0.317
	c0.605-0.092,1.245-0.171,1.917-0.237C208.774,88.962,209.452,88.93,210.137,88.93z M210.613,106.165
	c0.579,0,1.132-0.013,1.659-0.04c0.527-0.025,0.948-0.065,1.266-0.118v-4.468c-0.237-0.053-0.593-0.104-1.067-0.158
	c-0.475-0.053-0.909-0.078-1.305-0.078c-0.553,0-1.074,0.032-1.562,0.098c-0.488,0.066-0.916,0.192-1.285,0.376
	c-0.369,0.185-0.658,0.435-0.869,0.752c-0.212,0.315-0.316,0.711-0.316,1.186c0,0.923,0.31,1.562,0.929,1.918
	C208.681,105.986,209.531,106.165,210.613,106.165z"/>
<path d="M237.058,94.7c-0.527-0.132-1.146-0.27-1.858-0.415c-0.712-0.145-1.476-0.218-2.292-0.218c-0.369,0-0.811,0.034-1.325,0.1
	c-0.514,0.066-0.902,0.139-1.166,0.218v15.892h-5.89V90.589c1.054-0.369,2.299-0.718,3.735-1.047
	c1.436-0.33,3.038-0.495,4.804-0.495c0.315,0,0.697,0.02,1.146,0.06c0.447,0.04,0.896,0.093,1.344,0.158
	c0.447,0.066,0.895,0.146,1.344,0.237c0.448,0.093,0.83,0.204,1.146,0.336L237.058,94.7z"/>
<path d="M241.209,90.194c1.001-0.29,2.293-0.561,3.873-0.811c1.582-0.251,3.242-0.376,4.981-0.376c1.766,0,3.235,0.231,4.408,0.691
	c1.172,0.461,2.102,1.113,2.787,1.957c0.686,0.845,1.172,1.845,1.462,3.004c0.29,1.16,0.435,2.451,0.435,3.875v11.741h-5.89V99.247
	c0-1.898-0.25-3.242-0.751-4.033c-0.501-0.79-1.437-1.186-2.807-1.186c-0.422,0-0.87,0.02-1.344,0.06
	c-0.475,0.039-0.896,0.086-1.266,0.138v16.051h-5.89V90.194z"/>
<path d="M270.937,83.473c0,1.081-0.35,1.932-1.048,2.55c-0.699,0.62-1.522,0.93-2.471,0.93c-0.949,0-1.772-0.31-2.471-0.93
	c-0.699-0.618-1.048-1.469-1.048-2.55c0-1.08,0.349-1.93,1.048-2.549c0.698-0.619,1.521-0.93,2.471-0.93
	c0.948,0,1.771,0.311,2.471,0.93C270.587,81.543,270.937,82.393,270.937,83.473z M270.383,110.276h-5.89V89.482h5.89V110.276z"/>
<path d="M275.917,90.194c1.001-0.29,2.293-0.561,3.873-0.811c1.582-0.251,3.242-0.376,4.981-0.376c1.766,0,3.235,0.231,4.408,0.691
	c1.172,0.461,2.102,1.113,2.787,1.957c0.686,0.845,1.172,1.845,1.462,3.004c0.29,1.16,0.435,2.451,0.435,3.875v11.741h-5.89V99.247
	c0-1.898-0.25-3.242-0.751-4.033c-0.501-0.79-1.437-1.186-2.807-1.186c-0.422,0-0.87,0.02-1.344,0.06
	c-0.475,0.039-0.896,0.086-1.266,0.138v16.051h-5.89V90.194z"/>
<path d="M317.148,107.667c0,3.399-0.863,5.923-2.589,7.57s-4.395,2.471-8.005,2.471c-1.265,0-2.53-0.113-3.795-0.336
	c-1.266-0.225-2.438-0.521-3.52-0.89l1.029-4.941c0.921,0.368,1.891,0.658,2.905,0.87c1.015,0.21,2.167,0.315,3.458,0.315
	c1.687,0,2.88-0.369,3.578-1.106c0.698-0.738,1.048-1.687,1.048-2.847v-0.75c-0.633,0.289-1.285,0.508-1.957,0.652
	s-1.403,0.216-2.193,0.216c-2.874,0-5.074-0.849-6.603-2.55c-1.528-1.699-2.293-4.077-2.293-7.135c0-1.528,0.238-2.918,0.712-4.17
	c0.475-1.253,1.166-2.326,2.076-3.223c0.908-0.896,2.022-1.588,3.34-2.075s2.807-0.731,4.467-0.731c0.712,0,1.443,0.033,2.193,0.099
	c0.752,0.066,1.496,0.152,2.234,0.257c0.737,0.106,1.442,0.231,2.114,0.376c0.673,0.146,1.272,0.297,1.799,0.455V107.667z
	 M304.221,99.207c0,3.294,1.33,4.941,3.993,4.941c0.605,0,1.172-0.079,1.699-0.237c0.527-0.157,0.976-0.342,1.345-0.554v-9.408
	c-0.29-0.053-0.633-0.099-1.027-0.138c-0.396-0.04-0.857-0.06-1.384-0.06c-1.556,0-2.716,0.514-3.479,1.541
	C304.603,96.321,304.221,97.625,304.221,99.207z"/>
<path d="M350.945,110.276c-0.306-0.953-0.633-1.93-0.983-2.934c-0.352-1.003-0.701-2.002-1.048-2.996h-10.7
	c-0.347,0.999-0.692,2-1.04,3.004c-0.348,1.005-0.671,1.98-0.971,2.926h-6.405c1.032-2.951,2.01-5.68,2.935-8.184
	c0.926-2.504,1.83-4.862,2.716-7.076s1.758-4.315,2.617-6.306c0.859-1.989,1.752-3.934,2.677-5.831h5.847
	c0.899,1.897,1.786,3.842,2.66,5.831c0.873,1.99,1.754,4.092,2.642,6.306c0.887,2.214,1.793,4.572,2.72,7.076
	s1.906,5.232,2.939,8.184H350.945z M343.535,89.087c-0.138,0.397-0.339,0.939-0.604,1.624c-0.265,0.685-0.566,1.476-0.904,2.374
	c-0.339,0.897-0.718,1.886-1.136,2.965c-0.419,1.078-0.843,2.21-1.274,3.395h7.833c-0.419-1.188-0.825-2.323-1.217-3.406
	c-0.394-1.081-0.768-2.071-1.121-2.969c-0.354-0.898-0.664-1.689-0.931-2.373C343.914,90.012,343.698,89.476,343.535,89.087z"/>
<path d="M368.973,110.671c-1.714-0.025-3.104-0.211-4.171-0.554c-1.066-0.341-1.911-0.823-2.529-1.441
	c-0.62-0.62-1.042-1.37-1.266-2.255c-0.225-0.882-0.335-1.877-0.335-2.984V80.548l5.89-0.948v22.651
	c0,0.527,0.039,1.002,0.118,1.424c0.079,0.421,0.231,0.776,0.455,1.066s0.546,0.528,0.968,0.712c0.422,0.185,0.989,0.303,1.7,0.355
	L368.973,110.671z"/>
<path d="M381.465,110.671c-1.714-0.025-3.104-0.211-4.17-0.554c-1.067-0.341-1.912-0.823-2.53-1.441
	c-0.62-0.62-1.042-1.37-1.266-2.255c-0.225-0.882-0.335-1.877-0.335-2.984V80.548l5.89-0.948v22.651
	c0,0.527,0.039,1.002,0.118,1.424c0.079,0.421,0.231,0.776,0.455,1.066s0.546,0.528,0.968,0.712c0.422,0.185,0.989,0.303,1.7,0.355
	L381.465,110.671z"/>
<path d="M392.099,83.473c0,1.081-0.35,1.932-1.048,2.55c-0.699,0.62-1.522,0.93-2.471,0.93c-0.949,0-1.772-0.31-2.471-0.93
	c-0.699-0.618-1.048-1.469-1.048-2.55c0-1.08,0.349-1.93,1.048-2.549c0.698-0.619,1.521-0.93,2.471-0.93
	c0.948,0,1.771,0.311,2.471,0.93C391.749,81.543,392.099,82.393,392.099,83.473z M391.545,110.276h-5.89V89.482h5.89V110.276z"/>
<path d="M404.55,88.93c1.74,0,3.189,0.196,4.349,0.593c1.16,0.395,2.089,0.962,2.787,1.699c0.698,0.738,1.192,1.635,1.482,2.688
	c0.29,1.056,0.436,2.229,0.436,3.52v12.254c-0.845,0.186-2.017,0.402-3.52,0.652c-1.501,0.251-3.319,0.376-5.455,0.376
	c-1.344,0-2.563-0.119-3.656-0.355c-1.094-0.238-2.035-0.626-2.826-1.166c-0.791-0.541-1.397-1.246-1.818-2.116
	c-0.422-0.869-0.633-1.937-0.633-3.202c0-1.211,0.243-2.239,0.731-3.083c0.487-0.843,1.14-1.515,1.956-2.016
	s1.753-0.863,2.808-1.088c1.053-0.224,2.147-0.336,3.281-0.336c0.763,0,1.442,0.034,2.035,0.1c0.593,0.066,1.074,0.151,1.443,0.256
	v-0.553c0-1.001-0.303-1.805-0.91-2.411c-0.605-0.606-1.66-0.909-3.161-0.909c-1.003,0-1.991,0.072-2.966,0.217
	c-0.975,0.146-1.818,0.35-2.53,0.612l-0.75-4.743c0.341-0.104,0.77-0.218,1.284-0.335c0.514-0.119,1.073-0.225,1.681-0.317
	c0.605-0.092,1.245-0.171,1.917-0.237C403.187,88.962,403.865,88.93,404.55,88.93z M405.026,106.165c0.579,0,1.132-0.013,1.659-0.04
	c0.527-0.025,0.949-0.065,1.266-0.118v-4.468c-0.237-0.053-0.593-0.104-1.067-0.158c-0.475-0.053-0.909-0.078-1.305-0.078
	c-0.553,0-1.074,0.032-1.562,0.098c-0.488,0.066-0.916,0.192-1.285,0.376c-0.369,0.185-0.658,0.435-0.869,0.752
	c-0.212,0.315-0.316,0.711-0.316,1.186c0,0.923,0.31,1.562,0.929,1.918C403.094,105.986,403.945,106.165,405.026,106.165z"/>
<path d="M418.941,90.194c1.001-0.29,2.293-0.561,3.874-0.811c1.581-0.251,3.241-0.376,4.98-0.376c1.767,0,3.235,0.231,4.408,0.691
	c1.172,0.461,2.102,1.113,2.787,1.957c0.686,0.845,1.172,1.845,1.462,3.004c0.29,1.16,0.435,2.451,0.435,3.875v11.741h-5.89V99.247
	c0-1.898-0.25-3.242-0.751-4.033c-0.501-0.79-1.437-1.186-2.807-1.186c-0.421,0-0.87,0.02-1.344,0.06
	c-0.475,0.039-0.896,0.086-1.266,0.138v16.051h-5.89V90.194z"/>
<path d="M441.235,99.879c0-1.502,0.244-2.919,0.731-4.249c0.487-1.331,1.192-2.491,2.115-3.479c0.922-0.988,2.042-1.772,3.36-2.353
	c1.317-0.579,2.82-0.868,4.507-0.868c1.106,0,2.121,0.098,3.044,0.296c0.921,0.197,1.818,0.48,2.688,0.85l-1.226,4.704
	c-0.554-0.211-1.159-0.395-1.818-0.554c-0.658-0.158-1.396-0.237-2.214-0.237c-1.739,0-3.037,0.541-3.894,1.622
	c-0.856,1.08-1.285,2.503-1.285,4.269c0,1.872,0.402,3.32,1.206,4.349c0.804,1.027,2.207,1.541,4.211,1.541
	c0.71,0,1.475-0.064,2.292-0.196c0.816-0.132,1.568-0.343,2.253-0.633l0.831,4.822c-0.687,0.29-1.543,0.54-2.57,0.752
	c-1.027,0.21-2.16,0.315-3.398,0.315c-1.898,0-3.532-0.283-4.902-0.851c-1.371-0.565-2.497-1.336-3.381-2.312
	c-0.883-0.975-1.528-2.128-1.937-3.459C441.439,102.878,441.235,101.435,441.235,99.879z"/>
<path d="M460.013,100.037c0-1.845,0.283-3.459,0.851-4.843c0.565-1.383,1.311-2.536,2.232-3.459c0.923-0.923,1.983-1.62,3.183-2.096
	c1.199-0.474,2.432-0.71,3.696-0.71c2.951,0,5.284,0.902,6.998,2.707c1.712,1.806,2.569,4.461,2.569,7.965
	c0,0.344-0.014,0.719-0.04,1.127c-0.026,0.41-0.053,0.771-0.079,1.088h-13.362c0.132,1.213,0.698,2.174,1.701,2.886
	c1.001,0.712,2.345,1.066,4.031,1.066c1.08,0,2.142-0.099,3.183-0.296c1.04-0.197,1.891-0.441,2.55-0.731l0.79,4.783
	c-0.315,0.158-0.737,0.317-1.264,0.475c-0.528,0.158-1.115,0.297-1.761,0.415c-0.645,0.119-1.337,0.217-2.074,0.297
	c-0.738,0.079-1.478,0.118-2.215,0.118c-1.87,0-3.498-0.276-4.882-0.83s-2.53-1.311-3.438-2.273
	c-0.91-0.961-1.582-2.102-2.017-3.419S460.013,101.566,460.013,100.037z M473.85,97.783c-0.027-0.499-0.113-0.987-0.258-1.462
	c-0.146-0.475-0.369-0.896-0.672-1.265s-0.686-0.672-1.146-0.91c-0.461-0.237-1.034-0.355-1.72-0.355
	c-0.659,0-1.226,0.112-1.699,0.336c-0.476,0.225-0.87,0.521-1.186,0.89c-0.317,0.369-0.561,0.797-0.732,1.285
	s-0.297,0.982-0.376,1.481H473.85z"/>
</svg>
