<?xml version="1.0" encoding="utf-8"?>
<!-- Generator: Adobe Illustrator 15.1.0, SVG Export Plug-In . SVG Version: 6.00 Build 0)  -->
<!DOCTYPE svg PUBLIC "-//W3C//DTD SVG 1.1//EN" "http://www.w3.org/Graphics/SVG/1.1/DTD/svg11.dtd">
<svg version="1.1" id="Logo" xmlns="http://www.w3.org/2000/svg" xmlns:xlink="http://www.w3.org/1999/xlink" x="0px" y="0px"
	 width="485.982px" height="141.751px" viewBox="0 0 485.982 141.751" enable-background="new 0 0 485.982 141.751"
	 xml:space="preserve">
<path fill="#282828" d="M98.92,49.928v25.389h6.317v-9.717h-3.889l21.867-19.923V31.582h6.318c0,0,20.895,3.404,28.184-0.968
	c-9.23,13.604-16.521,17.005-16.521,17.005s9.232-8.745,10.689-13.605c-11.178,4.86-22.84,2.429-22.84,2.429v9.234L150.429,65.6
	h-7.775v14.576h-4.858v-18.95l-11.662-12.148L109.61,64.143v13.119H96.13V47.757L98.92,49.928z"/>
<g>
	<g>
		<polygon fill="#282828" points="73.475,57.502 74.639,59.51 87.109,46.613 107.48,53.052 87.2,42.682 		"/>
		<polygon fill="#282828" points="79.225,52.238 75.457,55.652 75.457,49.685 79.225,49.685 		"/>
	</g>
</g>
<g>
	<g>
		<polygon fill="#282828" points="91.266,38.713 91.266,42.024 105.602,33.501 119.6,41.772 106.035,30.377 		"/>
		<polygon fill="#282828" points="97.689,35.88 94.525,38.752 94.525,33.74 97.689,33.74 		"/>
	</g>
</g>
<rect x="93.508" y="38.163" fill="#282828" width="1.807" height="9.289"/>
<rect x="112.08" y="37.389" fill="#282828" width="1.809" height="18.831"/>
<path id="Right_Tail" display="none" fill="#AF0A0A" d="M294.475,133.156c0,0-24.817,2.73-61.373,18.365h9.398
	C260.893,143.618,278.604,137.061,294.475,133.156z"/>
<path id="Left_Tail" display="none" fill="#282828" d="M48.496,146.252c15.071,0.289,29.279,2.283,42.344,5.27h7.301
	C69.963,145.045,48.496,146.252,48.496,146.252z"/>
<path fill="#F05A28" d="M25.257,126.775c-0.59-0.135-1.174-0.274-1.749-0.424C24.089,126.504,24.671,126.645,25.257,126.775z"/>
<g id="Lower_Left_Red">
	<path display="none" fill="#AF0A0A" d="M5.632,118.947c-4.482-0.387,24.569,5.621,56.271-6.348
		c-1.414-0.843-1.618-0.953-3.098-1.801C43.327,118.146,9.914,119.316,5.632,118.947z"/>
	<path display="none" fill="#AF0A0A" d="M75.501,103.209c-4.396,2.262-8.625,4.209-12.768,5.895c1.303,0.82,1.741,1.097,3.042,1.959
		c3.86-1.778,8.232-3.572,12.188-5.978C77.039,104.378,76.493,103.948,75.501,103.209z"/>
	<path display="none" fill="#AF0A0A" d="M77.367,102.246c0.845,0.719,1.577,1.354,2.418,2.1c0.646-0.41,8.667-4.731,11.967-6.684
		c-0.564-0.508-1.941-1.541-2.632-2.143C85.041,98.014,81.134,100.254,77.367,102.246z"/>
	<path display="none" fill="#AF0A0A" d="M87.152,112.471c-3.729,1.973-7.549,3.853-11.419,5.578c1.05,0.779,1.051,0.762,2.096,1.575
		c3.673-1.538,7.596-3.293,11.377-5.381C88.34,113.475,88.232,113.389,87.152,112.471z"/>
	<path display="none" fill="#AF0A0A" d="M25.257,126.775c15.756,3.609,32.667,0.343,49.456-6.155
		c-1.084-0.729-0.802-0.536-1.948-1.282C56.635,126.143,39.821,130.032,25.257,126.775z"/>
	<path display="none" fill="#AF0A0A" d="M31.475,141.75c14.625-0.375,35.664-2.898,55.016-12.887
		c-0.885-0.65-1.813-1.328-2.762-2.012C68.655,134.977,51.779,139.523,31.475,141.75z"/>
</g>
<g>
	<g>
		<path fill="#AF0A0A" d="M122.973,105.199c17.361-9.727,31.708-21.014,31.708-21.014h-13.454
			c-15.406,18.268-55.84,40.279-100.006,55.349C84.193,127.539,110.236,112.334,122.973,105.199z"/>
		<path fill="#AF0A0A" d="M78.083,112.512c27.521-10.654,44.924-28.471,45.658-28.55c0.733-0.079-8.638-0.035-8.638-0.035
			c-9.941,10.173-36.767,33.636-95.328,41.304C56.356,122.205,73.204,113.99,78.083,112.512z"/>
		<path fill="#AF0A0A" d="M99.905,83.961l-8.67-0.047C85.427,91.128,62.316,106.896,0,111.984c21.335,0,45.382-2.244,64.062-8.67
			C85.874,95.813,99.905,83.961,99.905,83.961z"/>
	</g>
	<path fill="#AF0A0A" d="M31.077,115.984"/>
</g>
<path fill="#282828" d="M82.712,83.691h-7.255c13.119,7.716,21.819,13.119,32.59,20.881C98.698,96.114,90.041,88.736,82.712,83.691z
	"/>
<path fill="#282828" d="M60.067,83.691H45.254c28.678,11.642,52.887,30.334,63.274,39.41
	C99.393,112.461,71.749,90.014,60.067,83.691z"/>
<path fill="#282828" d="M20.848,83.691H0c33.571,4.968,94.445,47.836,109.675,58.06C90.521,125.23,35.159,87.198,20.848,83.691z"/>
<g id="Right_Lower_Red">
	<path display="none" fill="#AF0A0A" d="M89.629,95.206c0.563,0.578,1.658,1.743,2.215,2.342
		c7.785-4.329,16.888-9.438,23.767-13.856h-9.43C101.737,88.855,94.848,92.208,89.629,95.206z"/>
	<path display="none" fill="#AF0A0A" d="M87.932,112.055c0.875,0.881,1.017,1.016,1.881,1.93
		c7.148-3.116,38.018-23.146,49.04-30.293h-7.981C126.277,87.073,105.156,102.831,87.932,112.055z"/>
	<path display="none" fill="#AF0A0A" d="M154.805,83.889l6.657-0.197c-24.736,11.629-69.294,41.944-73.365,44.349
		c-0.846-0.741-1.692-1.467-2.54-2.187C94.586,120.863,144.266,88.777,154.805,83.889z"/>
	<path display="none" fill="#AF0A0A" d="M257.918,152.814c4.692-1.336,17.453-1.39,22.52-2.424c0,0-15.813-0.813-28.449,2.424"/>
</g>
<g>
	<path fill="#AF0A0A" d="M70.252,73.609V32.556h-4.375L57.133,0l-7.775,33.042l-2.917,2.427V51.99c0,0-3.401,0-10.69,0
		s-6.8,23.127-6.8,23.127h-2.917v-16.81c-20.408,0-20.408,16.036-20.408,16.036v5.831H9.39v-4.369
		c0-14.215,14.58-12.758,14.58-12.758V77.99h8.745c0,0,0-3.281,0-12.757c0-9.474,6.194-11.294,6.194-11.294h11.298V36.442
		l2.55-2.917l5.104-20.407l5.104,23.688h4.737v40.455h10.116v-3.651H70.252z"/>
	<polygon fill="#282828" points="77.818,55.713 77.818,73.609 77.818,77.261 80.856,77.261 80.856,52.006 	"/>
	<line fill="none" x1="77.818" y1="73.609" x2="77.818" y2="77.261"/>
</g>
<g>
	<path fill="#AF0A0A" d="M183.308,75.05c-2.144-3.808-4.464-7.567-6.96-11.28c-2.496-3.712-5.152-7.216-7.968-10.512V75.05h-7.392
		V41.786h6.096c1.056,1.056,2.224,2.352,3.504,3.888c1.28,1.536,2.584,3.176,3.912,4.92c1.327,1.745,2.647,3.552,3.96,5.424
		c1.312,1.872,2.544,3.672,3.696,5.4V41.786h7.439V75.05H183.308z"/>
	<path fill="#AF0A0A" d="M195.596,62.618c0-2.239,0.344-4.2,1.032-5.88c0.688-1.68,1.591-3.08,2.712-4.2
		c1.119-1.12,2.407-1.968,3.863-2.544c1.456-0.576,2.952-0.864,4.488-0.864c3.584,0,6.416,1.096,8.496,3.288s3.12,5.417,3.12,9.672
		c0,0.416-0.017,0.872-0.048,1.368c-0.032,0.496-0.064,0.936-0.097,1.32H202.94c0.16,1.472,0.848,2.64,2.064,3.504
		c1.216,0.864,2.848,1.296,4.896,1.296c1.312,0,2.6-0.12,3.864-0.36c1.264-0.24,2.296-0.536,3.096-0.888l0.96,5.808
		c-0.384,0.192-0.896,0.384-1.536,0.576c-0.641,0.192-1.352,0.36-2.136,0.504s-1.624,0.264-2.52,0.36
		c-0.896,0.096-1.793,0.144-2.688,0.144c-2.272,0-4.248-0.336-5.928-1.008s-3.072-1.592-4.176-2.761
		c-1.104-1.167-1.92-2.551-2.448-4.151C195.86,66.202,195.596,64.474,195.596,62.618z M212.396,59.882
		c-0.032-0.607-0.137-1.2-0.312-1.776c-0.177-0.576-0.449-1.088-0.816-1.536c-0.368-0.448-0.833-0.816-1.392-1.104
		c-0.561-0.288-1.257-0.432-2.089-0.432c-0.8,0-1.487,0.137-2.063,0.408c-0.576,0.272-1.056,0.632-1.44,1.08
		c-0.384,0.448-0.68,0.968-0.888,1.56c-0.208,0.592-0.36,1.192-0.456,1.8H212.396z"/>
	<path fill="#AF0A0A" d="M232.652,42.506c0,1.313-0.424,2.344-1.271,3.096c-0.849,0.752-1.848,1.128-3,1.128s-2.152-0.376-3-1.128
		c-0.849-0.751-1.272-1.783-1.272-3.096c0-1.312,0.424-2.344,1.272-3.096c0.848-0.751,1.848-1.128,3-1.128s2.151,0.376,3,1.128
		C232.228,40.162,232.652,41.194,232.652,42.506z M231.98,75.05h-7.151V49.802h7.151V75.05z"/>
	<path fill="#AF0A0A" d="M260.491,71.882c0,4.128-1.049,7.191-3.145,9.192c-2.096,1.999-5.336,3-9.72,3
		c-1.536,0-3.072-0.137-4.608-0.408c-1.536-0.272-2.96-0.633-4.271-1.08l1.248-6c1.119,0.447,2.296,0.8,3.527,1.056
		s2.632,0.384,4.2,0.384c2.048,0,3.496-0.448,4.344-1.344c0.848-0.896,1.272-2.047,1.272-3.456v-0.911
		c-0.768,0.352-1.56,0.615-2.376,0.791c-0.816,0.177-1.704,0.264-2.664,0.264c-3.488,0-6.16-1.031-8.016-3.095
		c-1.856-2.064-2.784-4.952-2.784-8.664c0-1.855,0.288-3.544,0.864-5.064c0.575-1.52,1.416-2.824,2.52-3.912
		c1.104-1.087,2.455-1.927,4.056-2.52c1.601-0.592,3.408-0.888,5.425-0.888c0.863,0,1.752,0.041,2.664,0.12
		c0.911,0.081,1.815,0.185,2.712,0.312c0.896,0.128,1.752,0.281,2.567,0.456c0.816,0.176,1.544,0.36,2.185,0.552V71.882z
		 M244.795,61.61c0,4,1.615,6,4.848,6c0.736,0,1.424-0.096,2.064-0.288c0.64-0.192,1.184-0.416,1.632-0.672V55.226
		c-0.353-0.063-0.768-0.12-1.248-0.168c-0.479-0.048-1.04-0.072-1.68-0.072c-1.889,0-3.297,0.624-4.225,1.872
		S244.795,59.69,244.795,61.61z"/>
	<path fill="#AF0A0A" d="M290.683,62.426c0,2.016-0.296,3.84-0.888,5.472c-0.593,1.632-1.448,3.024-2.568,4.176
		c-1.12,1.151-2.496,2.04-4.128,2.664c-1.632,0.623-3.488,0.936-5.568,0.936c-0.863,0-1.769-0.04-2.712-0.12
		c-0.944-0.08-1.872-0.185-2.784-0.312c-0.911-0.129-1.784-0.28-2.615-0.456c-0.833-0.176-1.568-0.36-2.208-0.553v-35.28
		l7.151-1.152v12.576c0.8-0.352,1.632-0.624,2.496-0.816c0.864-0.192,1.792-0.288,2.784-0.288c1.792,0,3.376,0.312,4.752,0.936
		s2.527,1.512,3.456,2.664c0.928,1.152,1.632,2.536,2.112,4.152C290.443,58.642,290.683,60.442,290.683,62.426z M283.387,62.234
		c0-4.608-1.696-6.912-5.088-6.912c-0.736,0-1.464,0.096-2.185,0.288c-0.72,0.192-1.304,0.432-1.752,0.72v13.008
		c0.352,0.064,0.8,0.12,1.345,0.168c0.543,0.048,1.135,0.072,1.775,0.072c1.952,0,3.424-0.672,4.416-2.016
		C282.89,66.218,283.387,64.442,283.387,62.234z"/>
	<path fill="#AF0A0A" d="M296.203,75.05V38.954l7.151-1.152v12.096c0.48-0.16,1.096-0.312,1.849-0.456
		c0.751-0.144,1.479-0.216,2.184-0.216c2.048,0,3.752,0.281,5.112,0.84c1.359,0.56,2.447,1.352,3.264,2.376
		c0.816,1.024,1.392,2.24,1.729,3.648c0.336,1.409,0.504,2.976,0.504,4.704V75.05h-7.152V61.658c0-2.304-0.296-3.936-0.888-4.896
		c-0.593-0.96-1.688-1.44-3.288-1.44c-0.641,0-1.24,0.056-1.8,0.168c-0.561,0.113-1.064,0.232-1.513,0.36v19.2H296.203z"/>
	<path fill="#AF0A0A" d="M348.09,62.378c0,1.984-0.287,3.8-0.863,5.448c-0.576,1.648-1.409,3.056-2.496,4.224
		c-1.089,1.169-2.393,2.072-3.912,2.712c-1.521,0.64-3.225,0.96-5.112,0.96c-1.856,0-3.544-0.32-5.063-0.96
		c-1.521-0.64-2.825-1.543-3.912-2.712c-1.089-1.168-1.937-2.576-2.544-4.224c-0.608-1.647-0.912-3.463-0.912-5.448
		c0-1.984,0.312-3.792,0.936-5.424c0.624-1.632,1.488-3.024,2.593-4.176c1.104-1.152,2.415-2.047,3.936-2.688
		c1.52-0.64,3.176-0.96,4.968-0.96c1.824,0,3.496,0.32,5.017,0.96c1.52,0.641,2.823,1.536,3.911,2.688s1.937,2.544,2.545,4.176
		C347.786,58.586,348.09,60.394,348.09,62.378z M340.794,62.378c0-2.208-0.439-3.944-1.319-5.208
		c-0.881-1.264-2.137-1.896-3.769-1.896s-2.896,0.632-3.792,1.896c-0.896,1.264-1.344,3-1.344,5.208s0.447,3.96,1.344,5.256
		c0.896,1.296,2.16,1.944,3.792,1.944s2.888-0.648,3.769-1.944C340.355,66.338,340.794,64.586,340.794,62.378z"/>
	<path fill="#AF0A0A" d="M368.825,56.138c-0.641-0.16-1.393-0.328-2.256-0.504c-0.864-0.175-1.793-0.264-2.784-0.264
		c-0.448,0-0.984,0.041-1.608,0.12c-0.624,0.08-1.097,0.168-1.416,0.264V75.05h-7.151V51.146c1.279-0.448,2.791-0.872,4.536-1.272
		c1.743-0.4,3.688-0.6,5.831-0.6c0.385,0,0.848,0.024,1.393,0.072c0.544,0.048,1.087,0.113,1.632,0.192
		c0.544,0.081,1.088,0.176,1.632,0.288c0.544,0.113,1.008,0.249,1.393,0.408L368.825,56.138z"/>
	<path fill="#AF0A0A" d="M373.865,75.05V38.954l7.151-1.152v12.096c0.48-0.16,1.096-0.312,1.849-0.456
		c0.751-0.144,1.479-0.216,2.184-0.216c2.048,0,3.752,0.281,5.112,0.84c1.359,0.56,2.447,1.352,3.264,2.376
		c0.816,1.024,1.392,2.24,1.729,3.648c0.336,1.409,0.504,2.976,0.504,4.704V75.05h-7.152V61.658c0-2.304-0.296-3.936-0.888-4.896
		c-0.593-0.96-1.688-1.44-3.288-1.44c-0.641,0-1.24,0.056-1.8,0.168c-0.561,0.113-1.064,0.232-1.513,0.36v19.2H373.865z"/>
	<path fill="#AF0A0A" d="M425.752,62.378c0,1.984-0.287,3.8-0.863,5.448c-0.576,1.648-1.409,3.056-2.496,4.224
		c-1.089,1.169-2.393,2.072-3.912,2.712c-1.521,0.64-3.225,0.96-5.112,0.96c-1.856,0-3.544-0.32-5.063-0.96
		c-1.521-0.64-2.825-1.543-3.912-2.712c-1.089-1.168-1.937-2.576-2.544-4.224c-0.608-1.647-0.912-3.463-0.912-5.448
		c0-1.984,0.312-3.792,0.936-5.424c0.624-1.632,1.488-3.024,2.593-4.176c1.104-1.152,2.415-2.047,3.936-2.688
		c1.52-0.64,3.176-0.96,4.968-0.96c1.824,0,3.496,0.32,5.017,0.96c1.52,0.641,2.823,1.536,3.911,2.688s1.937,2.544,2.545,4.176
		C425.448,58.586,425.752,60.394,425.752,62.378z M418.456,62.378c0-2.208-0.439-3.944-1.319-5.208
		c-0.881-1.264-2.137-1.896-3.769-1.896s-2.896,0.632-3.792,1.896c-0.896,1.264-1.344,3-1.344,5.208s0.447,3.96,1.344,5.256
		c0.896,1.296,2.16,1.944,3.792,1.944s2.888-0.648,3.769-1.944C418.017,66.338,418.456,64.586,418.456,62.378z"/>
	<path fill="#AF0A0A" d="M454.889,62.378c0,1.984-0.287,3.8-0.863,5.448c-0.576,1.648-1.409,3.056-2.496,4.224
		c-1.089,1.169-2.393,2.072-3.912,2.712c-1.521,0.64-3.225,0.96-5.112,0.96c-1.856,0-3.544-0.32-5.063-0.96
		c-1.521-0.64-2.825-1.543-3.912-2.712c-1.089-1.168-1.937-2.576-2.544-4.224c-0.608-1.647-0.912-3.463-0.912-5.448
		c0-1.984,0.312-3.792,0.936-5.424c0.624-1.632,1.488-3.024,2.593-4.176c1.104-1.152,2.415-2.047,3.936-2.688
		c1.52-0.64,3.176-0.96,4.968-0.96c1.824,0,3.496,0.32,5.017,0.96c1.52,0.641,2.823,1.536,3.911,2.688s1.937,2.544,2.545,4.176
		C454.585,58.586,454.889,60.394,454.889,62.378z M447.593,62.378c0-2.208-0.439-3.944-1.319-5.208
		c-0.881-1.264-2.137-1.896-3.769-1.896s-2.896,0.632-3.792,1.896c-0.896,1.264-1.344,3-1.344,5.208s0.447,3.96,1.344,5.256
		c0.896,1.296,2.16,1.944,3.792,1.944s2.888-0.648,3.769-1.944C447.154,66.338,447.593,64.586,447.593,62.378z"/>
	<path fill="#AF0A0A" d="M482.68,74.233c-0.641,0.192-1.376,0.377-2.208,0.553s-1.704,0.327-2.616,0.456
		c-0.911,0.127-1.84,0.231-2.783,0.312c-0.944,0.08-1.849,0.12-2.713,0.12c-2.08,0-3.936-0.305-5.567-0.912
		s-3.009-1.479-4.128-2.615c-1.121-1.136-1.977-2.512-2.568-4.129c-0.593-1.615-0.888-3.432-0.888-5.448
		c0-2.047,0.256-3.896,0.768-5.544c0.512-1.648,1.248-3.048,2.208-4.2c0.96-1.152,2.137-2.032,3.528-2.64s2.983-0.912,4.776-0.912
		c0.991,0,1.879,0.096,2.663,0.288c0.784,0.192,1.576,0.464,2.377,0.816V38.954l7.151-1.152V74.233z M466.504,62.234
		c0,2.208,0.496,3.984,1.488,5.328c0.991,1.344,2.464,2.016,4.416,2.016c0.64,0,1.231-0.024,1.775-0.072s0.992-0.104,1.345-0.168
		V56.33c-0.449-0.288-1.032-0.528-1.753-0.72c-0.72-0.192-1.448-0.288-2.184-0.288C468.199,55.322,466.504,57.626,466.504,62.234z"
		/>
	<path fill="#282828" d="M178.368,106.992v5.36h-18.52v-27.72h6.24v22.359H178.368z"/>
	<path fill="#282828" d="M180.967,101.992c0-1.866,0.286-3.5,0.86-4.899c0.573-1.4,1.326-2.566,2.26-3.5s2.006-1.641,3.22-2.12
		c1.214-0.48,2.46-0.72,3.74-0.72c2.986,0,5.347,0.913,7.08,2.739c1.733,1.827,2.6,4.514,2.6,8.061c0,0.347-0.014,0.727-0.04,1.14
		c-0.026,0.414-0.054,0.78-0.079,1.101h-13.521c0.133,1.227,0.706,2.199,1.72,2.92c1.014,0.72,2.373,1.08,4.08,1.08
		c1.094,0,2.167-0.101,3.221-0.301c1.053-0.199,1.913-0.446,2.579-0.739l0.801,4.84c-0.32,0.16-0.747,0.319-1.28,0.479
		c-0.534,0.16-1.127,0.3-1.78,0.42s-1.354,0.221-2.1,0.301c-0.747,0.079-1.494,0.119-2.24,0.119c-1.894,0-3.54-0.279-4.939-0.84
		c-1.4-0.56-2.561-1.326-3.48-2.3c-0.92-0.973-1.6-2.126-2.04-3.46C181.187,104.979,180.967,103.539,180.967,101.992z
		 M194.967,99.713c-0.026-0.507-0.113-1-0.26-1.48c-0.146-0.479-0.374-0.906-0.68-1.28c-0.308-0.373-0.694-0.68-1.16-0.92
		c-0.467-0.239-1.047-0.359-1.74-0.359c-0.667,0-1.24,0.113-1.72,0.34c-0.48,0.227-0.88,0.526-1.2,0.899
		c-0.32,0.374-0.567,0.808-0.74,1.301c-0.174,0.493-0.3,0.993-0.38,1.5H194.967z"/>
	<path fill="#282828" d="M212.888,90.753c1.76,0,3.226,0.199,4.399,0.6s2.113,0.974,2.82,1.72c0.706,0.747,1.206,1.654,1.5,2.721
		c0.293,1.066,0.439,2.253,0.439,3.56v12.4c-0.854,0.187-2.039,0.406-3.56,0.659c-1.52,0.254-3.36,0.381-5.52,0.381
		c-1.36,0-2.594-0.12-3.7-0.36c-1.107-0.24-2.061-0.633-2.86-1.18s-1.414-1.261-1.84-2.141c-0.427-0.88-0.64-1.96-0.64-3.24
		c0-1.226,0.246-2.266,0.739-3.119s1.153-1.533,1.98-2.04c0.826-0.507,1.773-0.873,2.84-1.101c1.066-0.226,2.173-0.34,3.32-0.34
		c0.772,0,1.46,0.034,2.06,0.1c0.601,0.067,1.086,0.154,1.46,0.261v-0.561c0-1.013-0.307-1.826-0.92-2.439s-1.68-0.92-3.2-0.92
		c-1.014,0-2.014,0.073-3,0.22s-1.84,0.354-2.56,0.62l-0.76-4.8c0.346-0.106,0.779-0.221,1.3-0.341
		c0.52-0.119,1.086-0.226,1.7-0.319c0.612-0.094,1.26-0.174,1.939-0.24C211.508,90.786,212.194,90.753,212.888,90.753z
		 M213.367,108.192c0.586,0,1.146-0.013,1.68-0.04c0.533-0.026,0.961-0.066,1.28-0.12v-4.52c-0.24-0.054-0.6-0.106-1.08-0.16
		c-0.479-0.053-0.92-0.08-1.319-0.08c-0.561,0-1.087,0.034-1.58,0.1c-0.494,0.067-0.927,0.194-1.301,0.381
		c-0.373,0.187-0.666,0.439-0.88,0.76s-0.319,0.72-0.319,1.2c0,0.934,0.313,1.58,0.939,1.939
		C211.414,108.013,212.274,108.192,213.367,108.192z"/>
	<path fill="#282828" d="M240.128,96.593c-0.534-0.134-1.16-0.273-1.881-0.42c-0.72-0.146-1.493-0.221-2.319-0.221
		c-0.374,0-0.82,0.034-1.34,0.101c-0.521,0.066-0.914,0.14-1.181,0.22v16.08h-5.96v-19.92c1.066-0.373,2.326-0.727,3.78-1.061
		c1.453-0.333,3.073-0.5,4.86-0.5c0.319,0,0.706,0.021,1.159,0.061s0.906,0.094,1.36,0.16c0.453,0.066,0.906,0.146,1.36,0.24
		c0.453,0.094,0.84,0.206,1.16,0.34L240.128,96.593z"/>
	<path fill="#282828" d="M244.327,92.032c1.014-0.293,2.32-0.566,3.92-0.819c1.601-0.254,3.28-0.38,5.04-0.38
		c1.786,0,3.273,0.233,4.46,0.699c1.187,0.467,2.127,1.127,2.82,1.98s1.187,1.867,1.479,3.04c0.294,1.174,0.44,2.479,0.44,3.92
		v11.88h-5.96v-11.16c0-1.92-0.254-3.28-0.76-4.08c-0.507-0.8-1.454-1.2-2.84-1.2c-0.428,0-0.881,0.021-1.36,0.061
		c-0.48,0.04-0.907,0.087-1.28,0.14v16.24h-5.96V92.032z"/>
	<path fill="#282828" d="M274.407,85.232c0,1.094-0.354,1.954-1.061,2.58c-0.707,0.627-1.54,0.94-2.5,0.94s-1.794-0.313-2.5-0.94
		c-0.707-0.626-1.06-1.486-1.06-2.58c0-1.093,0.353-1.953,1.06-2.58c0.706-0.626,1.54-0.939,2.5-0.939s1.793,0.313,2.5,0.939
		C274.053,83.279,274.407,84.14,274.407,85.232z M273.847,112.353h-5.96v-21.04h5.96V112.353z"/>
	<path fill="#282828" d="M279.447,92.032c1.014-0.293,2.32-0.566,3.92-0.819c1.601-0.254,3.28-0.38,5.04-0.38
		c1.786,0,3.273,0.233,4.46,0.699c1.187,0.467,2.127,1.127,2.82,1.98s1.187,1.867,1.479,3.04c0.294,1.174,0.44,2.479,0.44,3.92
		v11.88h-5.96v-11.16c0-1.92-0.254-3.28-0.76-4.08c-0.507-0.8-1.454-1.2-2.84-1.2c-0.428,0-0.881,0.021-1.36,0.061
		c-0.48,0.04-0.907,0.087-1.28,0.14v16.24h-5.96V92.032z"/>
	<path fill="#282828" d="M321.166,109.713c0,3.439-0.874,5.993-2.62,7.659c-1.747,1.667-4.446,2.5-8.1,2.5
		c-1.28,0-2.561-0.113-3.84-0.34c-1.28-0.227-2.467-0.526-3.561-0.899l1.04-5c0.934,0.373,1.913,0.666,2.94,0.88
		c1.026,0.213,2.192,0.32,3.5,0.32c1.706,0,2.913-0.374,3.62-1.12c0.706-0.747,1.06-1.707,1.06-2.88v-0.761
		c-0.64,0.294-1.3,0.514-1.98,0.66c-0.68,0.147-1.42,0.22-2.22,0.22c-2.906,0-5.134-0.859-6.68-2.58
		c-1.547-1.72-2.32-4.126-2.32-7.22c0-1.546,0.24-2.953,0.72-4.22c0.48-1.267,1.181-2.354,2.101-3.26s2.046-1.606,3.38-2.101
		c1.333-0.493,2.84-0.739,4.52-0.739c0.721,0,1.461,0.033,2.221,0.1s1.513,0.153,2.26,0.26c0.746,0.107,1.46,0.234,2.14,0.38
		c0.681,0.147,1.286,0.3,1.82,0.46V109.713z M308.086,101.152c0,3.334,1.347,5,4.04,5c0.613,0,1.187-0.08,1.72-0.24
		c0.533-0.159,0.986-0.346,1.36-0.56v-9.52c-0.294-0.054-0.64-0.101-1.04-0.141s-0.867-0.06-1.4-0.06c-1.573,0-2.746,0.52-3.52,1.56
		S308.086,99.553,308.086,101.152z"/>
	<path fill="#282828" d="M355.363,112.353c-0.309-0.963-0.64-1.952-0.995-2.968c-0.354-1.015-0.709-2.026-1.061-3.032h-10.826
		c-0.35,1.012-0.701,2.024-1.053,3.041c-0.352,1.016-0.679,2.003-0.982,2.959h-6.479c1.043-2.986,2.032-5.746,2.969-8.28
		c0.936-2.533,1.852-4.92,2.748-7.16c0.896-2.239,1.778-4.366,2.647-6.38c0.87-2.013,1.772-3.979,2.709-5.899h5.915
		c0.911,1.92,1.809,3.887,2.692,5.899c0.884,2.014,1.775,4.141,2.673,6.38c0.897,2.24,1.814,4.627,2.752,7.16
		c0.938,2.534,1.929,5.294,2.975,8.28H355.363z M347.865,90.912c-0.14,0.403-0.343,0.951-0.611,1.644
		c-0.268,0.693-0.573,1.494-0.915,2.402c-0.343,0.907-0.726,1.907-1.149,3c-0.423,1.092-0.853,2.236-1.29,3.435h7.928
		c-0.425-1.202-0.836-2.351-1.233-3.445c-0.397-1.096-0.775-2.098-1.133-3.006c-0.358-0.908-0.672-1.708-0.941-2.4
		C348.249,91.849,348.031,91.307,347.865,90.912z"/>
	<path fill="#282828" d="M373.606,112.753c-1.734-0.027-3.141-0.214-4.22-0.561c-1.08-0.346-1.935-0.833-2.561-1.46
		c-0.627-0.626-1.054-1.386-1.28-2.28c-0.227-0.893-0.34-1.899-0.34-3.02v-23.16l5.96-0.96v22.92c0,0.534,0.04,1.014,0.12,1.44
		s0.233,0.786,0.46,1.08c0.227,0.293,0.554,0.533,0.98,0.72c0.426,0.187,1,0.307,1.72,0.36L373.606,112.753z"/>
	<path fill="#282828" d="M386.245,112.753c-1.734-0.027-3.141-0.214-4.22-0.561c-1.08-0.346-1.935-0.833-2.561-1.46
		c-0.627-0.626-1.054-1.386-1.28-2.28c-0.227-0.893-0.34-1.899-0.34-3.02v-23.16l5.96-0.96v22.92c0,0.534,0.04,1.014,0.12,1.44
		s0.233,0.786,0.46,1.08c0.227,0.293,0.554,0.533,0.98,0.72c0.426,0.187,1,0.307,1.72,0.36L386.245,112.753z"/>
	<path fill="#282828" d="M397.005,85.232c0,1.094-0.354,1.954-1.061,2.58c-0.707,0.627-1.54,0.94-2.5,0.94s-1.794-0.313-2.5-0.94
		c-0.707-0.626-1.06-1.486-1.06-2.58c0-1.093,0.353-1.953,1.06-2.58c0.706-0.626,1.54-0.939,2.5-0.939s1.793,0.313,2.5,0.939
		C396.651,83.279,397.005,84.14,397.005,85.232z M396.445,112.353h-5.96v-21.04h5.96V112.353z"/>
	<path fill="#282828" d="M409.605,90.753c1.76,0,3.226,0.199,4.399,0.6s2.113,0.974,2.82,1.72c0.706,0.747,1.206,1.654,1.5,2.721
		c0.293,1.066,0.439,2.253,0.439,3.56v12.4c-0.854,0.187-2.039,0.406-3.56,0.659c-1.52,0.254-3.36,0.381-5.52,0.381
		c-1.36,0-2.594-0.12-3.7-0.36c-1.107-0.24-2.061-0.633-2.86-1.18s-1.414-1.261-1.84-2.141c-0.427-0.88-0.64-1.96-0.64-3.24
		c0-1.226,0.246-2.266,0.739-3.119s1.153-1.533,1.98-2.04c0.826-0.507,1.773-0.873,2.84-1.101c1.066-0.226,2.173-0.34,3.32-0.34
		c0.772,0,1.46,0.034,2.06,0.1c0.601,0.067,1.086,0.154,1.46,0.261v-0.561c0-1.013-0.307-1.826-0.92-2.439s-1.68-0.92-3.2-0.92
		c-1.014,0-2.014,0.073-3,0.22s-1.84,0.354-2.56,0.62l-0.76-4.8c0.346-0.106,0.779-0.221,1.3-0.341
		c0.52-0.119,1.086-0.226,1.7-0.319c0.612-0.094,1.26-0.174,1.939-0.24C408.225,90.786,408.91,90.753,409.605,90.753z
		 M410.084,108.192c0.586,0,1.146-0.013,1.68-0.04c0.533-0.026,0.961-0.066,1.28-0.12v-4.52c-0.24-0.054-0.6-0.106-1.08-0.16
		c-0.479-0.053-0.92-0.08-1.319-0.08c-0.561,0-1.087,0.034-1.58,0.1c-0.494,0.067-0.927,0.194-1.301,0.381
		c-0.373,0.187-0.666,0.439-0.88,0.76s-0.319,0.72-0.319,1.2c0,0.934,0.313,1.58,0.939,1.939
		C408.131,108.013,408.99,108.192,410.084,108.192z"/>
	<path fill="#282828" d="M424.163,92.032c1.014-0.293,2.32-0.566,3.92-0.819c1.601-0.254,3.28-0.38,5.04-0.38
		c1.786,0,3.273,0.233,4.46,0.699c1.187,0.467,2.127,1.127,2.82,1.98s1.187,1.867,1.479,3.04c0.294,1.174,0.44,2.479,0.44,3.92
		v11.88h-5.96v-11.16c0-1.92-0.254-3.28-0.76-4.08c-0.507-0.8-1.454-1.2-2.84-1.2c-0.428,0-0.881,0.021-1.36,0.061
		c-0.48,0.04-0.907,0.087-1.28,0.14v16.24h-5.96V92.032z"/>
	<path fill="#282828" d="M446.723,101.833c0-1.521,0.246-2.953,0.74-4.301c0.493-1.346,1.206-2.52,2.14-3.52s2.066-1.793,3.4-2.38
		c1.333-0.587,2.854-0.88,4.56-0.88c1.12,0,2.146,0.1,3.08,0.3s1.84,0.486,2.721,0.859l-1.24,4.761
		c-0.561-0.214-1.174-0.4-1.84-0.561c-0.667-0.16-1.414-0.24-2.24-0.24c-1.76,0-3.074,0.547-3.94,1.641s-1.3,2.533-1.3,4.32
		c0,1.894,0.406,3.359,1.22,4.399s2.233,1.561,4.261,1.561c0.72,0,1.493-0.066,2.319-0.2s1.587-0.347,2.28-0.641l0.84,4.881
		c-0.693,0.293-1.56,0.546-2.6,0.76c-1.04,0.213-2.188,0.319-3.44,0.319c-1.92,0-3.573-0.286-4.96-0.859s-2.526-1.354-3.42-2.34
		s-1.547-2.153-1.96-3.5C446.929,104.866,446.723,103.406,446.723,101.833z"/>
	<path fill="#282828" d="M465.723,101.992c0-1.866,0.286-3.5,0.86-4.899c0.573-1.4,1.326-2.566,2.26-3.5s2.006-1.641,3.22-2.12
		c1.214-0.48,2.46-0.72,3.74-0.72c2.986,0,5.347,0.913,7.08,2.739c1.733,1.827,2.6,4.514,2.6,8.061c0,0.347-0.014,0.727-0.04,1.14
		c-0.026,0.414-0.054,0.78-0.079,1.101h-13.521c0.133,1.227,0.706,2.199,1.72,2.92c1.014,0.72,2.373,1.08,4.08,1.08
		c1.094,0,2.167-0.101,3.221-0.301c1.053-0.199,1.913-0.446,2.579-0.739l0.801,4.84c-0.32,0.16-0.747,0.319-1.28,0.479
		c-0.534,0.16-1.127,0.3-1.78,0.42s-1.354,0.221-2.1,0.301c-0.747,0.079-1.494,0.119-2.24,0.119c-1.894,0-3.54-0.279-4.939-0.84
		c-1.4-0.56-2.561-1.326-3.48-2.3c-0.92-0.973-1.6-2.126-2.04-3.46C465.943,104.979,465.723,103.539,465.723,101.992z
		 M479.723,99.713c-0.026-0.507-0.113-1-0.26-1.48c-0.146-0.479-0.374-0.906-0.68-1.28c-0.308-0.373-0.694-0.68-1.16-0.92
		c-0.467-0.239-1.047-0.359-1.74-0.359c-0.667,0-1.24,0.113-1.72,0.34c-0.48,0.227-0.88,0.526-1.2,0.899
		c-0.32,0.374-0.567,0.808-0.74,1.301c-0.174,0.493-0.3,0.993-0.38,1.5H479.723z"/>
</g>
</svg>
