<?xml version="1.0" encoding="utf-8"?>
<!-- Generator: Adobe Illustrator 15.1.0, SVG Export Plug-In . SVG Version: 6.00 Build 0)  -->
<!DOCTYPE svg PUBLIC "-//W3C//DTD SVG 1.1//EN" "http://www.w3.org/Graphics/SVG/1.1/DTD/svg11.dtd">
<svg version="1.1" id="Logo" xmlns="http://www.w3.org/2000/svg" xmlns:xlink="http://www.w3.org/1999/xlink" x="0px" y="0px"
	 width="367.732px" height="141.75px" viewBox="0 0 367.732 141.75" enable-background="new 0 0 367.732 141.75"
	 xml:space="preserve">
<path fill="#282828" d="M98.92,49.928v25.389h6.317v-9.717h-3.889l21.867-19.923V31.582h6.318c0,0,20.895,3.404,28.184-0.968
	c-9.23,13.604-16.521,17.005-16.521,17.005s9.232-8.745,10.689-13.605c-11.178,4.86-22.84,2.429-22.84,2.429v9.234L150.429,65.6
	h-7.775v14.576h-4.858v-18.95l-11.662-12.148L109.61,64.143v13.119H96.13V47.757L98.92,49.928z"/>
<g>
	<g>
		<polygon fill="#282828" points="73.475,57.502 74.639,59.51 87.109,46.613 107.48,53.052 87.2,42.682 		"/>
		<polygon fill="#282828" points="79.225,52.238 75.457,55.652 75.457,49.685 79.225,49.685 		"/>
	</g>
</g>
<g>
	<g>
		<polygon fill="#282828" points="91.266,38.713 91.266,42.024 105.602,33.501 119.6,41.772 106.035,30.377 		"/>
		<polygon fill="#282828" points="97.689,35.88 94.525,38.752 94.525,33.74 97.689,33.74 		"/>
	</g>
</g>
<rect x="93.508" y="38.163" fill="#282828" width="1.807" height="9.289"/>
<rect x="112.08" y="37.389" fill="#282828" width="1.809" height="18.831"/>
<path id="Right_Tail" display="none" fill="#AF0A0A" d="M294.475,133.156c0,0-24.817,2.73-61.373,18.365h9.398
	C260.893,143.618,278.604,137.061,294.475,133.156z"/>
<path id="Left_Tail" display="none" fill="#282828" d="M48.496,146.252c15.071,0.289,29.279,2.283,42.344,5.27h7.301
	C69.963,145.045,48.496,146.252,48.496,146.252z"/>
<path fill="#F05A28" d="M25.257,126.775c-0.59-0.135-1.174-0.274-1.749-0.424C24.089,126.504,24.671,126.645,25.257,126.775z"/>
<g id="Lower_Left_Red">
	<path display="none" fill="#AF0A0A" d="M5.632,118.947c-4.482-0.387,24.569,5.621,56.271-6.348
		c-1.414-0.843-1.618-0.953-3.098-1.801C43.327,118.146,9.914,119.316,5.632,118.947z"/>
	<path display="none" fill="#AF0A0A" d="M75.501,103.209c-4.396,2.262-8.625,4.209-12.768,5.895c1.303,0.82,1.741,1.097,3.042,1.959
		c3.86-1.778,8.232-3.572,12.188-5.978C77.039,104.378,76.493,103.948,75.501,103.209z"/>
	<path display="none" fill="#AF0A0A" d="M77.367,102.246c0.845,0.719,1.577,1.354,2.418,2.1c0.646-0.41,8.667-4.731,11.967-6.684
		c-0.564-0.508-1.941-1.541-2.632-2.143C85.041,98.014,81.134,100.254,77.367,102.246z"/>
	<path display="none" fill="#AF0A0A" d="M87.152,112.471c-3.729,1.973-7.549,3.853-11.419,5.578c1.05,0.779,1.051,0.762,2.096,1.575
		c3.673-1.538,7.596-3.293,11.377-5.381C88.34,113.475,88.232,113.389,87.152,112.471z"/>
	<path display="none" fill="#AF0A0A" d="M25.257,126.775c15.756,3.609,32.667,0.343,49.456-6.155
		c-1.084-0.729-0.802-0.536-1.948-1.282C56.635,126.143,39.821,130.032,25.257,126.775z"/>
	<path display="none" fill="#AF0A0A" d="M31.475,141.75c14.625-0.375,35.664-2.898,55.016-12.887
		c-0.885-0.65-1.813-1.328-2.762-2.012C68.655,134.977,51.779,139.523,31.475,141.75z"/>
</g>
<g>
	<g>
		<path fill="#AF0A0A" d="M122.973,105.199c17.361-9.727,31.708-21.014,31.708-21.014h-13.454
			c-15.406,18.268-55.84,40.279-100.006,55.349C84.193,127.539,110.236,112.334,122.973,105.199z"/>
		<path fill="#AF0A0A" d="M78.083,112.512c27.521-10.654,44.924-28.471,45.658-28.55c0.733-0.079-8.638-0.035-8.638-0.035
			c-9.941,10.173-36.767,33.636-95.328,41.304C56.356,122.205,73.204,113.99,78.083,112.512z"/>
		<path fill="#AF0A0A" d="M99.905,83.961l-8.67-0.047C85.427,91.128,62.316,106.896,0,111.984c21.335,0,45.382-2.244,64.062-8.67
			C85.874,95.813,99.905,83.961,99.905,83.961z"/>
	</g>
	<path fill="#AF0A0A" d="M31.077,115.984"/>
</g>
<path fill="#282828" d="M82.712,83.691h-7.255c13.119,7.716,21.819,13.119,32.59,20.881C98.698,96.114,90.041,88.736,82.712,83.691z
	"/>
<path fill="#282828" d="M60.067,83.691H45.254c28.678,11.642,52.887,30.334,63.274,39.41
	C99.393,112.461,71.749,90.014,60.067,83.691z"/>
<path fill="#282828" d="M20.848,83.691H0c33.571,4.968,94.445,47.836,109.675,58.06C90.521,125.23,35.159,87.198,20.848,83.691z"/>
<g id="Right_Lower_Red">
	<path display="none" fill="#AF0A0A" d="M89.629,95.206c0.563,0.578,1.658,1.743,2.215,2.342
		c7.785-4.329,16.888-9.438,23.767-13.856h-9.43C101.737,88.855,94.848,92.208,89.629,95.206z"/>
	<path display="none" fill="#AF0A0A" d="M87.932,112.055c0.875,0.881,1.017,1.016,1.881,1.93
		c7.148-3.116,38.018-23.146,49.04-30.293h-7.981C126.277,87.073,105.156,102.831,87.932,112.055z"/>
	<path display="none" fill="#AF0A0A" d="M154.805,83.889l6.657-0.197c-24.736,11.629-69.294,41.944-73.365,44.349
		c-0.846-0.741-1.692-1.467-2.54-2.187C94.586,120.863,144.266,88.777,154.805,83.889z"/>
	<path display="none" fill="#AF0A0A" d="M257.918,152.814c4.692-1.336,17.453-1.39,22.52-2.424c0,0-15.813-0.813-28.449,2.424"/>
</g>
<g>
	<path fill="#AF0A0A" d="M70.252,73.609V32.556h-4.375L57.133,0l-7.775,33.042l-2.917,2.427V51.99c0,0-3.401,0-10.69,0
		s-6.8,23.127-6.8,23.127h-2.917v-16.81c-20.408,0-20.408,16.036-20.408,16.036v5.831H9.39v-4.369
		c0-14.215,14.58-12.758,14.58-12.758V77.99h8.745c0,0,0-3.281,0-12.757c0-9.474,6.194-11.294,6.194-11.294h11.298V36.442
		l2.55-2.917l5.104-20.407l5.104,23.688h4.737v40.455h10.116v-3.651H70.252z"/>
	<polygon fill="#282828" points="77.818,55.713 77.818,73.609 77.818,77.261 80.856,77.261 80.856,52.006 	"/>
	<line fill="none" x1="77.818" y1="73.609" x2="77.818" y2="77.261"/>
</g>
<g>
	<path fill="#AF0A0A" d="M181.411,82.17c-1.302-2.313-2.71-4.597-4.226-6.852c-1.516-2.254-3.129-4.382-4.839-6.384V82.17h-4.49
		V61.968h3.702c0.642,0.641,1.351,1.428,2.129,2.361c0.777,0.933,1.569,1.929,2.375,2.988c0.807,1.06,1.609,2.157,2.406,3.295
		c0.796,1.136,1.543,2.23,2.245,3.279V61.968h4.52V82.17H181.411z"/>
	<path fill="#AF0A0A" d="M188.874,74.62c0-1.361,0.209-2.552,0.626-3.572c0.418-1.021,0.967-1.87,1.647-2.551
		c0.68-0.68,1.461-1.195,2.347-1.545c0.885-0.35,1.794-0.525,2.726-0.525c2.177,0,3.897,0.666,5.16,1.997
		c1.264,1.332,1.895,3.291,1.895,5.875c0,0.253-0.01,0.529-0.027,0.831c-0.021,0.302-0.039,0.568-0.06,0.802h-9.853
		c0.098,0.894,0.515,1.603,1.254,2.128c0.736,0.524,1.729,0.787,2.973,0.787c0.796,0,1.579-0.072,2.348-0.219
		c0.768-0.146,1.393-0.325,1.88-0.538l0.583,3.526c-0.232,0.117-0.544,0.233-0.934,0.35c-0.391,0.116-0.821,0.219-1.297,0.307
		c-0.477,0.087-0.987,0.16-1.531,0.218c-0.545,0.06-1.089,0.088-1.633,0.088c-1.38,0-2.579-0.204-3.6-0.612
		c-1.021-0.408-1.866-0.967-2.537-1.676c-0.671-0.71-1.166-1.551-1.488-2.522C189.034,76.797,188.874,75.747,188.874,74.62z
		 M199.077,72.958c-0.02-0.37-0.081-0.729-0.189-1.079c-0.106-0.35-0.272-0.66-0.494-0.933c-0.226-0.272-0.506-0.496-0.846-0.67
		c-0.341-0.174-0.764-0.262-1.269-0.262c-0.486,0-0.904,0.083-1.254,0.247c-0.349,0.166-0.641,0.384-0.874,0.657
		c-0.232,0.273-0.413,0.587-0.539,0.947c-0.125,0.36-0.219,0.724-0.277,1.094H199.077z"/>
	<path fill="#AF0A0A" d="M211.379,62.405c0,0.796-0.258,1.423-0.772,1.88c-0.515,0.457-1.122,0.685-1.822,0.685
		c-0.699,0-1.307-0.228-1.822-0.685c-0.515-0.456-0.771-1.084-0.771-1.88s0.257-1.423,0.771-1.88
		c0.516-0.457,1.123-0.685,1.822-0.685c0.7,0,1.308,0.228,1.822,0.685C211.121,60.981,211.379,61.608,211.379,62.405z
		 M210.971,82.17h-4.344V66.836h4.344V82.17z"/>
	<path fill="#AF0A0A" d="M228.286,80.246c0,2.508-0.636,4.367-1.909,5.582s-3.24,1.822-5.903,1.822
		c-0.934,0-1.865-0.083-2.799-0.247c-0.934-0.166-1.797-0.384-2.595-0.657l0.758-3.644c0.681,0.272,1.394,0.486,2.144,0.642
		c0.748,0.155,1.598,0.233,2.551,0.233c1.243,0,2.123-0.272,2.639-0.815c0.515-0.545,0.772-1.243,0.772-2.1v-0.555
		c-0.467,0.215-0.947,0.376-1.442,0.48c-0.495,0.108-1.035,0.162-1.617,0.162c-2.118,0-3.742-0.627-4.869-1.882
		c-1.127-1.253-1.691-3.007-1.691-5.261c0-1.128,0.175-2.152,0.525-3.076c0.35-0.923,0.859-1.715,1.531-2.376
		c0.67-0.661,1.492-1.17,2.463-1.53c0.97-0.36,2.069-0.54,3.294-0.54c0.525,0,1.063,0.026,1.618,0.073
		c0.554,0.048,1.103,0.112,1.646,0.189c0.543,0.078,1.063,0.17,1.56,0.277c0.494,0.106,0.937,0.218,1.326,0.335L228.286,80.246
		L228.286,80.246z M218.753,74.008c0,2.43,0.982,3.644,2.945,3.644c0.446,0,0.864-0.058,1.253-0.175
		c0.39-0.116,0.719-0.253,0.99-0.408V70.13c-0.213-0.038-0.466-0.073-0.757-0.102c-0.291-0.028-0.633-0.044-1.021-0.044
		c-1.146,0-2.002,0.38-2.565,1.138C219.036,71.879,218.753,72.842,218.753,74.008z"/>
	<path fill="#AF0A0A" d="M232.367,82.17V60.248l4.345-0.7v7.346c0.291-0.097,0.665-0.189,1.122-0.277
		c0.456-0.087,0.898-0.131,1.327-0.131c1.243,0,2.277,0.17,3.105,0.51c0.825,0.34,1.486,0.821,1.982,1.442
		c0.494,0.623,0.844,1.362,1.048,2.216c0.204,0.856,0.307,1.808,0.307,2.857v8.658h-4.343v-8.133c0-1.399-0.181-2.391-0.54-2.975
		c-0.359-0.583-1.024-0.875-1.996-0.875c-0.39,0-0.753,0.035-1.094,0.102c-0.341,0.068-0.646,0.141-0.918,0.22v11.66H232.367z"/>
	<path fill="#AF0A0A" d="M263.794,74.502c0,1.225-0.181,2.333-0.54,3.324s-0.879,1.836-1.559,2.536
		c-0.681,0.7-1.516,1.239-2.506,1.618c-0.992,0.379-2.119,0.569-3.383,0.569c-0.523,0-1.073-0.025-1.645-0.073
		c-0.575-0.049-1.139-0.112-1.693-0.19c-0.554-0.077-1.083-0.169-1.588-0.276c-0.506-0.106-0.952-0.22-1.342-0.336V60.248l4.344-0.7
		v7.638c0.485-0.214,0.992-0.379,1.517-0.496c0.523-0.116,1.089-0.175,1.691-0.175c1.089,0,2.051,0.189,2.886,0.569
		c0.836,0.379,1.536,0.918,2.1,1.618c0.563,0.7,0.992,1.54,1.282,2.522C263.649,72.205,263.794,73.297,263.794,74.502z
		 M259.362,74.386c0-2.798-1.03-4.198-3.091-4.198c-0.447,0-0.887,0.058-1.326,0.176c-0.437,0.116-0.792,0.262-1.063,0.438v7.9
		c0.213,0.038,0.485,0.073,0.816,0.103c0.332,0.028,0.689,0.043,1.079,0.043c1.187,0,2.08-0.408,2.682-1.225
		S259.362,75.727,259.362,74.386z"/>
	<path fill="#AF0A0A" d="M281.49,74.474c0,1.205-0.177,2.309-0.527,3.31c-0.35,1-0.855,1.855-1.516,2.564
		c-0.661,0.71-1.453,1.259-2.376,1.646c-0.923,0.39-1.956,0.584-3.104,0.584c-1.127,0-2.153-0.194-3.076-0.584
		c-0.923-0.388-1.715-0.936-2.376-1.646c-0.66-0.709-1.175-1.564-1.543-2.564c-0.371-1.001-0.554-2.104-0.554-3.31
		s0.188-2.304,0.568-3.294c0.379-0.992,0.903-1.837,1.574-2.536c0.671-0.7,1.467-1.243,2.39-1.633
		c0.924-0.388,1.929-0.583,3.018-0.583c1.108,0,2.124,0.195,3.047,0.583c0.923,0.389,1.715,0.933,2.376,1.633
		c0.66,0.699,1.175,1.544,1.545,2.536C281.305,72.17,281.49,73.269,281.49,74.474z M277.058,74.474c0-1.34-0.267-2.396-0.802-3.162
		c-0.532-0.769-1.295-1.153-2.288-1.153c-0.99,0-1.759,0.384-2.304,1.153c-0.543,0.767-0.817,1.822-0.817,3.162
		c0,1.341,0.274,2.406,0.817,3.192c0.544,0.786,1.313,1.181,2.304,1.181s1.755-0.395,2.288-1.181
		C276.791,76.88,277.058,75.814,277.058,74.474z"/>
	<path fill="#AF0A0A" d="M294.083,70.684c-0.389-0.097-0.845-0.199-1.37-0.306s-1.088-0.16-1.691-0.16
		c-0.273,0-0.597,0.024-0.977,0.072c-0.38,0.049-0.667,0.104-0.86,0.16v11.72h-4.344V67.652c0.777-0.271,1.695-0.529,2.756-0.772
		c1.061-0.243,2.239-0.365,3.542-0.365c0.232,0,0.515,0.015,0.845,0.044c0.329,0.029,0.66,0.068,0.99,0.117s0.662,0.107,0.991,0.175
		c0.33,0.068,0.612,0.151,0.845,0.248L294.083,70.684z"/>
	<path fill="#AF0A0A" d="M297.145,82.17V60.248l4.344-0.7v7.346c0.29-0.097,0.665-0.189,1.122-0.277s0.899-0.131,1.327-0.131
		c1.243,0,2.277,0.17,3.104,0.51c0.827,0.34,1.487,0.821,1.983,1.442c0.495,0.623,0.845,1.362,1.049,2.216
		c0.204,0.856,0.306,1.808,0.306,2.857v8.658h-4.343v-8.133c0-1.399-0.18-2.391-0.539-2.975c-0.36-0.583-1.025-0.875-1.998-0.875
		c-0.388,0-0.752,0.035-1.093,0.102c-0.34,0.068-0.646,0.141-0.918,0.22v11.66H297.145z"/>
	<path fill="#AF0A0A" d="M328.657,74.474c0,1.205-0.176,2.309-0.525,3.31c-0.35,1-0.855,1.855-1.516,2.564
		c-0.661,0.71-1.453,1.259-2.377,1.646c-0.922,0.39-1.955,0.584-3.104,0.584c-1.127,0-2.153-0.194-3.076-0.584
		c-0.923-0.388-1.715-0.936-2.376-1.646c-0.661-0.709-1.176-1.564-1.543-2.564c-0.372-1.001-0.555-2.104-0.555-3.31
		s0.189-2.304,0.568-3.294c0.38-0.992,0.904-1.837,1.574-2.536c0.672-0.7,1.468-1.243,2.391-1.633
		c0.923-0.388,1.929-0.583,3.018-0.583c1.107,0,2.123,0.195,3.046,0.583c0.923,0.389,1.716,0.933,2.376,1.633
		c0.661,0.699,1.176,1.544,1.546,2.536C328.474,72.17,328.657,73.269,328.657,74.474z M324.227,74.474
		c0-1.34-0.267-2.396-0.802-3.162c-0.532-0.769-1.297-1.153-2.288-1.153c-0.99,0-1.759,0.384-2.304,1.153
		c-0.543,0.767-0.817,1.822-0.817,3.162c0,1.341,0.274,2.406,0.817,3.192s1.312,1.181,2.304,1.181c0.99,0,1.754-0.395,2.288-1.181
		C323.96,76.88,324.227,75.814,324.227,74.474z"/>
	<path fill="#AF0A0A" d="M346.355,74.474c0,1.205-0.176,2.309-0.525,3.31c-0.351,1-0.855,1.855-1.517,2.564
		c-0.66,0.71-1.453,1.259-2.376,1.646c-0.923,0.39-1.957,0.584-3.104,0.584c-1.129,0-2.153-0.194-3.076-0.584
		c-0.924-0.388-1.716-0.936-2.376-1.646c-0.661-0.709-1.176-1.564-1.545-2.564c-0.37-1.001-0.554-2.104-0.554-3.31
		s0.189-2.304,0.569-3.294c0.38-0.992,0.903-1.837,1.574-2.536c0.672-0.7,1.468-1.243,2.391-1.633
		c0.923-0.388,1.929-0.583,3.018-0.583c1.106,0,2.122,0.195,3.046,0.583c0.923,0.389,1.715,0.933,2.376,1.633
		c0.661,0.699,1.176,1.544,1.545,2.536C346.168,72.17,346.355,73.269,346.355,74.474z M341.923,74.474
		c0-1.34-0.269-2.396-0.802-3.162c-0.534-0.769-1.297-1.153-2.29-1.153c-0.989,0-1.758,0.384-2.302,1.153
		c-0.545,0.767-0.817,1.822-0.817,3.162c0,1.341,0.272,2.406,0.817,3.192c0.543,0.786,1.312,1.181,2.302,1.181
		c0.992,0,1.755-0.395,2.29-1.181C341.655,76.88,341.923,75.814,341.923,74.474z"/>
	<path fill="#AF0A0A" d="M363.235,81.674c-0.39,0.116-0.837,0.229-1.342,0.336c-0.505,0.107-1.034,0.199-1.589,0.276
		c-0.554,0.077-1.118,0.142-1.692,0.19c-0.573,0.048-1.122,0.073-1.646,0.073c-1.263,0-2.39-0.186-3.382-0.556
		c-0.991-0.368-1.826-0.897-2.507-1.588c-0.68-0.689-1.198-1.525-1.558-2.507c-0.361-0.981-0.54-2.085-0.54-3.31
		c0-1.243,0.155-2.365,0.466-3.366c0.312-1.001,0.759-1.852,1.342-2.55c0.581-0.7,1.296-1.235,2.143-1.604
		c0.846-0.369,1.813-0.554,2.9-0.554c0.603,0,1.142,0.059,1.618,0.175c0.478,0.117,0.957,0.282,1.443,0.496v-6.938l4.344-0.7
		L363.235,81.674L363.235,81.674z M353.409,74.386c0,1.341,0.3,2.42,0.902,3.236s1.497,1.225,2.682,1.225
		c0.39,0,0.749-0.015,1.081-0.043c0.328-0.029,0.602-0.064,0.816-0.103v-7.9c-0.274-0.175-0.629-0.321-1.064-0.438
		c-0.438-0.118-0.881-0.176-1.326-0.176C354.44,70.188,353.409,71.588,353.409,74.386z"/>
	<path d="M178.968,108.723v3.216h-11.112V95.307h3.744v13.416H178.968z"/>
	<path d="M180.527,105.723c0-1.12,0.173-2.1,0.517-2.939s0.796-1.541,1.355-2.101c0.561-0.56,1.203-0.983,1.933-1.272
		c0.729-0.287,1.477-0.432,2.244-0.432c1.792,0,3.208,0.549,4.248,1.645c1.039,1.096,1.56,2.707,1.56,4.836
		c0,0.207-0.008,0.436-0.023,0.684c-0.017,0.248-0.031,0.469-0.048,0.66H184.2c0.079,0.736,0.424,1.32,1.031,1.752
		s1.425,0.648,2.448,0.648c0.655,0,1.3-0.061,1.932-0.181c0.633-0.12,1.147-0.268,1.549-0.444l0.479,2.904
		c-0.191,0.096-0.448,0.192-0.769,0.288c-0.321,0.097-0.677,0.181-1.067,0.252c-0.393,0.072-0.813,0.132-1.261,0.181
		c-0.448,0.047-0.896,0.071-1.344,0.071c-1.137,0-2.124-0.168-2.965-0.504c-0.84-0.336-1.535-0.796-2.088-1.38
		c-0.552-0.584-0.96-1.275-1.225-2.076C180.659,107.515,180.527,106.65,180.527,105.723z M188.928,104.354
		c-0.017-0.304-0.068-0.6-0.156-0.888s-0.225-0.543-0.408-0.768c-0.185-0.225-0.416-0.408-0.695-0.553
		c-0.28-0.144-0.628-0.216-1.044-0.216c-0.4,0-0.744,0.067-1.032,0.204c-0.287,0.136-0.527,0.316-0.72,0.54
		c-0.191,0.225-0.34,0.483-0.443,0.78c-0.104,0.295-0.181,0.596-0.229,0.899H188.928z"/>
	<path d="M199.679,98.979c1.057,0,1.937,0.12,2.641,0.36c0.703,0.239,1.269,0.584,1.691,1.032c0.423,0.447,0.724,0.992,0.9,1.632
		c0.176,0.64,0.264,1.352,0.264,2.136v7.439c-0.512,0.112-1.224,0.244-2.136,0.396s-2.018,0.229-3.313,0.229
		c-0.814,0-1.556-0.072-2.22-0.217c-0.664-0.144-1.236-0.38-1.716-0.707c-0.48-0.328-0.85-0.757-1.104-1.285
		c-0.256-0.527-0.384-1.176-0.384-1.943c0-0.735,0.147-1.359,0.444-1.872c0.296-0.513,0.69-0.92,1.188-1.224
		c0.496-0.305,1.064-0.524,1.704-0.66c0.64-0.137,1.304-0.204,1.992-0.204c0.464,0,0.876,0.021,1.236,0.06
		c0.358,0.04,0.65,0.092,0.876,0.156v-0.336c0-0.607-0.186-1.096-0.554-1.464s-1.008-0.552-1.92-0.552
		c-0.606,0-1.208,0.043-1.8,0.132c-0.592,0.088-1.104,0.212-1.536,0.372l-0.456-2.881c0.208-0.063,0.469-0.131,0.78-0.203
		c0.313-0.072,0.651-0.137,1.021-0.192c0.367-0.056,0.757-0.104,1.164-0.144C198.851,98.998,199.263,98.979,199.679,98.979z
		 M199.967,109.443c0.352,0,0.688-0.009,1.008-0.025c0.32-0.016,0.576-0.039,0.77-0.071v-2.712c-0.146-0.032-0.36-0.063-0.648-0.096
		c-0.288-0.032-0.552-0.049-0.792-0.049c-0.336,0-0.652,0.021-0.948,0.061c-0.296,0.041-0.556,0.115-0.778,0.229
		c-0.226,0.111-0.4,0.264-0.528,0.455c-0.128,0.192-0.192,0.432-0.192,0.721c0,0.56,0.188,0.947,0.564,1.164
		C198.795,109.334,199.311,109.443,199.967,109.443z"/>
	<path d="M216.022,102.482c-0.319-0.08-0.695-0.164-1.128-0.252s-0.896-0.132-1.393-0.132c-0.225,0-0.491,0.021-0.805,0.06
		c-0.312,0.041-0.548,0.084-0.708,0.133v9.647h-3.575V99.986c0.64-0.224,1.396-0.436,2.269-0.636s1.844-0.3,2.916-0.3
		c0.191,0,0.424,0.012,0.695,0.036s0.544,0.056,0.815,0.096s0.544,0.088,0.816,0.144c0.271,0.057,0.504,0.125,0.695,0.205
		L216.022,102.482z"/>
	<path d="M218.542,99.746c0.607-0.176,1.393-0.34,2.353-0.491c0.96-0.152,1.968-0.228,3.023-0.228c1.072,0,1.964,0.139,2.677,0.42
		c0.711,0.279,1.275,0.676,1.691,1.188s0.712,1.12,0.888,1.824c0.177,0.703,0.265,1.488,0.265,2.352v7.128h-3.576v-6.696
		c0-1.151-0.151-1.968-0.455-2.447c-0.305-0.48-0.872-0.721-1.704-0.721c-0.257,0-0.528,0.013-0.815,0.037
		c-0.288,0.023-0.545,0.051-0.769,0.084v9.743h-3.576L218.542,99.746L218.542,99.746z"/>
	<path d="M236.59,95.666c0,0.656-0.212,1.173-0.636,1.549c-0.425,0.376-0.925,0.564-1.5,0.564c-0.576,0-1.076-0.188-1.5-0.564
		c-0.425-0.375-0.637-0.893-0.637-1.549c0-0.655,0.212-1.172,0.637-1.547c0.424-0.377,0.924-0.564,1.5-0.564
		c0.575,0,1.075,0.188,1.5,0.564C236.378,94.494,236.59,95.011,236.59,95.666z M236.254,111.938h-3.576V99.314h3.576V111.938z"/>
	<path d="M239.613,99.746c0.608-0.176,1.394-0.34,2.354-0.491c0.96-0.152,1.968-0.228,3.022-0.228c1.072,0,1.965,0.139,2.678,0.42
		c0.711,0.279,1.274,0.676,1.69,1.188s0.712,1.12,0.889,1.824c0.177,0.703,0.265,1.488,0.265,2.352v7.128h-3.576v-6.696
		c0-1.151-0.151-1.968-0.456-2.447c-0.304-0.48-0.872-0.721-1.704-0.721c-0.256,0-0.527,0.013-0.814,0.037
		c-0.288,0.023-0.545,0.051-0.77,0.084v9.743h-3.576L239.613,99.746L239.613,99.746z"/>
	<path d="M264.646,110.354c0,2.063-0.523,3.597-1.571,4.597c-1.049,1-2.668,1.5-4.86,1.5c-0.769,0-1.535-0.068-2.304-0.205
		c-0.769-0.135-1.479-0.315-2.137-0.539l0.624-3c0.561,0.224,1.147,0.399,1.765,0.527c0.616,0.129,1.315,0.192,2.101,0.192
		c1.023,0,1.747-0.224,2.172-0.672c0.424-0.448,0.636-1.023,0.636-1.728v-0.457c-0.384,0.176-0.779,0.31-1.188,0.396
		c-0.407,0.088-0.852,0.132-1.331,0.132c-1.744,0-3.081-0.517-4.009-1.548c-0.928-1.032-1.393-2.477-1.393-4.332
		c0-0.928,0.145-1.771,0.433-2.532c0.288-0.76,0.708-1.412,1.261-1.956c0.552-0.544,1.229-0.964,2.027-1.26s1.704-0.443,2.712-0.443
		c0.433,0,0.876,0.021,1.332,0.06c0.456,0.04,0.908,0.092,1.355,0.155c0.447,0.064,0.876,0.141,1.284,0.229
		c0.407,0.088,0.771,0.18,1.092,0.275L264.646,110.354L264.646,110.354z M256.797,105.219c0,2,0.809,3,2.425,3
		c0.367,0,0.711-0.048,1.031-0.145c0.32-0.096,0.592-0.207,0.815-0.336v-5.711c-0.176-0.033-0.384-0.061-0.624-0.084
		c-0.239-0.024-0.521-0.037-0.84-0.037c-0.943,0-1.647,0.313-2.111,0.937C257.029,103.467,256.797,104.259,256.797,105.219z"/>
	<path d="M285.163,111.938c-0.187-0.577-0.385-1.171-0.598-1.78c-0.213-0.608-0.426-1.215-0.637-1.819h-6.496
		c-0.21,0.606-0.42,1.215-0.631,1.825c-0.211,0.608-0.408,1.201-0.59,1.774h-3.888c0.626-1.792,1.22-3.448,1.78-4.968
		c0.562-1.52,1.111-2.952,1.648-4.296c0.538-1.345,1.066-2.62,1.589-3.828s1.063-2.388,1.625-3.54h3.55
		c0.546,1.152,1.085,2.332,1.615,3.54s1.063,2.483,1.604,3.828c0.538,1.344,1.09,2.776,1.651,4.296
		c0.563,1.52,1.157,3.176,1.784,4.968H285.163z M280.665,99.074c-0.084,0.241-0.206,0.57-0.367,0.986
		c-0.16,0.416-0.344,0.896-0.549,1.441c-0.206,0.545-0.437,1.145-0.689,1.8c-0.254,0.655-0.512,1.342-0.773,2.062h4.757
		c-0.255-0.722-0.501-1.41-0.74-2.067c-0.238-0.657-0.465-1.259-0.68-1.804s-0.403-1.024-0.564-1.439
		C280.896,99.637,280.765,99.311,280.665,99.074z"/>
	<path d="M296.108,112.179c-1.04-0.017-1.884-0.128-2.53-0.336c-0.648-0.208-1.161-0.5-1.536-0.876
		c-0.377-0.375-0.633-0.832-0.77-1.368c-0.136-0.536-0.204-1.14-0.204-1.812V93.891l3.576-0.576v13.752
		c0,0.32,0.024,0.608,0.072,0.864s0.14,0.472,0.274,0.647c0.138,0.177,0.332,0.32,0.59,0.433c0.255,0.112,0.6,0.185,1.03,0.216
		L296.108,112.179z"/>
	<path d="M303.692,112.179c-1.04-0.017-1.884-0.128-2.53-0.336c-0.648-0.208-1.161-0.5-1.536-0.876
		c-0.377-0.375-0.633-0.832-0.77-1.368c-0.136-0.536-0.204-1.14-0.204-1.812V93.891l3.576-0.576v13.752
		c0,0.32,0.024,0.608,0.072,0.864s0.14,0.472,0.274,0.647c0.138,0.177,0.332,0.32,0.59,0.433c0.255,0.112,0.6,0.185,1.03,0.216
		L303.692,112.179z"/>
	<path d="M310.148,95.666c0,0.656-0.212,1.173-0.636,1.549s-0.924,0.564-1.5,0.564s-1.076-0.188-1.5-0.564
		c-0.424-0.375-0.636-0.893-0.636-1.549c0-0.655,0.212-1.172,0.636-1.547c0.424-0.377,0.924-0.564,1.5-0.564s1.076,0.188,1.5,0.564
		C309.936,94.494,310.148,95.011,310.148,95.666z M309.813,111.938h-3.576V99.314h3.576V111.938z"/>
	<path d="M317.708,98.979c1.057,0,1.936,0.12,2.641,0.36c0.703,0.239,1.269,0.584,1.691,1.032c0.423,0.447,0.724,0.992,0.899,1.632
		c0.177,0.64,0.265,1.352,0.265,2.136v7.439c-0.513,0.112-1.225,0.244-2.137,0.396c-0.911,0.152-2.017,0.229-3.313,0.229
		c-0.815,0-1.556-0.072-2.22-0.217c-0.664-0.144-1.236-0.38-1.717-0.707c-0.479-0.328-0.849-0.757-1.104-1.285
		c-0.256-0.527-0.384-1.176-0.384-1.943c0-0.735,0.146-1.359,0.443-1.872c0.296-0.513,0.691-0.92,1.188-1.224
		c0.496-0.305,1.063-0.524,1.704-0.66c0.64-0.137,1.304-0.204,1.992-0.204c0.464,0,0.876,0.021,1.235,0.06
		c0.359,0.04,0.651,0.092,0.876,0.156v-0.336c0-0.607-0.185-1.096-0.553-1.464s-1.008-0.552-1.92-0.552
		c-0.607,0-1.208,0.043-1.8,0.132c-0.592,0.088-1.104,0.212-1.536,0.372l-0.456-2.881c0.208-0.063,0.469-0.131,0.78-0.203
		c0.313-0.072,0.65-0.137,1.021-0.192c0.367-0.056,0.756-0.104,1.164-0.144C316.88,98.998,317.292,98.979,317.708,98.979z
		 M317.996,109.443c0.352,0,0.688-0.009,1.008-0.025c0.32-0.016,0.576-0.039,0.769-0.071v-2.712
		c-0.145-0.032-0.359-0.063-0.647-0.096c-0.288-0.032-0.552-0.049-0.792-0.049c-0.336,0-0.652,0.021-0.948,0.061
		c-0.296,0.041-0.556,0.115-0.779,0.229c-0.225,0.111-0.399,0.264-0.527,0.455c-0.128,0.192-0.192,0.432-0.192,0.721
		c0,0.56,0.188,0.947,0.564,1.164C316.824,109.334,317.34,109.443,317.996,109.443z"/>
	<path d="M326.443,99.746c0.608-0.176,1.394-0.34,2.354-0.491c0.96-0.152,1.968-0.228,3.022-0.228c1.072,0,1.965,0.139,2.678,0.42
		c0.711,0.279,1.274,0.676,1.69,1.188s0.712,1.12,0.889,1.824c0.177,0.703,0.265,1.488,0.265,2.352v7.128h-3.576v-6.696
		c0-1.151-0.152-1.968-0.456-2.447c-0.304-0.48-0.872-0.721-1.704-0.721c-0.256,0-0.527,0.013-0.814,0.037
		c-0.288,0.023-0.545,0.051-0.77,0.084v9.743h-3.576L326.443,99.746L326.443,99.746z"/>
	<path d="M339.979,105.627c0-0.912,0.147-1.772,0.444-2.58c0.296-0.809,0.724-1.512,1.283-2.112c0.561-0.601,1.239-1.076,2.04-1.428
		c0.8-0.353,1.712-0.528,2.735-0.528c0.672,0,1.288,0.061,1.849,0.18c0.561,0.121,1.104,0.293,1.633,0.517l-0.744,2.856
		c-0.336-0.127-0.704-0.24-1.104-0.336c-0.4-0.097-0.849-0.145-1.345-0.145c-1.056,0-1.845,0.328-2.363,0.984
		c-0.52,0.655-0.78,1.52-0.78,2.592c0,1.136,0.244,2.016,0.731,2.64c0.488,0.624,1.341,0.937,2.557,0.937
		c0.433,0,0.896-0.041,1.393-0.121c0.495-0.079,0.951-0.207,1.368-0.383l0.504,2.928c-0.417,0.176-0.937,0.328-1.561,0.455
		c-0.624,0.129-1.313,0.192-2.063,0.192c-1.152,0-2.145-0.172-2.977-0.516c-0.832-0.345-1.517-0.812-2.053-1.404
		c-0.535-0.592-0.928-1.292-1.176-2.1C340.104,107.447,339.979,106.57,339.979,105.627z"/>
	<path d="M351.38,105.723c0-1.12,0.172-2.1,0.516-2.939c0.345-0.84,0.796-1.541,1.356-2.101c0.56-0.56,1.203-0.983,1.932-1.272
		c0.729-0.287,1.478-0.432,2.244-0.432c1.792,0,3.208,0.549,4.248,1.645s1.56,2.707,1.56,4.836c0,0.207-0.008,0.436-0.022,0.684
		c-0.018,0.248-0.032,0.469-0.048,0.66h-8.112c0.08,0.736,0.424,1.32,1.032,1.752c0.606,0.432,1.424,0.648,2.448,0.648
		c0.654,0,1.3-0.061,1.932-0.181s1.146-0.268,1.548-0.444l0.48,2.904c-0.192,0.096-0.448,0.192-0.77,0.288
		c-0.321,0.097-0.676,0.181-1.066,0.252c-0.394,0.072-0.813,0.132-1.262,0.181c-0.447,0.047-0.896,0.071-1.344,0.071
		c-1.136,0-2.124-0.168-2.964-0.504s-1.536-0.796-2.088-1.38s-0.96-1.275-1.226-2.076C351.512,107.515,351.38,106.65,351.38,105.723
		z M359.78,104.354c-0.017-0.304-0.067-0.6-0.155-0.888s-0.226-0.543-0.408-0.768c-0.185-0.225-0.416-0.408-0.696-0.553
		c-0.28-0.144-0.628-0.216-1.044-0.216c-0.399,0-0.744,0.067-1.032,0.204c-0.286,0.136-0.526,0.316-0.72,0.54
		c-0.19,0.225-0.34,0.483-0.443,0.78c-0.104,0.295-0.181,0.596-0.229,0.899H359.78z"/>
</g>
</svg>
